<?xml version="1.0" encoding="utf-8"?>
<!-- Generator: Adobe Illustrator 21.0.0, SVG Export Plug-In . SVG Version: 6.00 Build 0)  -->
<svg version="1.1" id="mail" xmlns="http://www.w3.org/2000/svg" xmlns:xlink="http://www.w3.org/1999/xlink" x="0px" y="0px"
	 viewBox="0 0 119.3 104.8" style="enable-background:new 0 0 119.3 104.8;" xml:space="preserve">
<style type="text/css">
	.st0{fill:#FFFFFF;}
	.st1{enable-background:new    ;}
</style>
<title>mail</title>
<path class="st0" d="M26.8,22.2c0.9-3.4,1.4-6.7,2.6-10c1.9-5-6-8.1-8.5-3.6c-3,5.3-5.9,10.6-9,15.8C9.2,29,5.1,33.9,3.6,39.1
	c-1.3,4.5,0.8,9,4.4,11.8c2.1,1.6,4.5,2.3,6.7,3.6c2,1.2,3.4,3.1,5.2,4.6c4.2,3.5,9.4,5.7,14.3,7.9c5.2,2.4,11.2,6.1,16.8,7.2
	s9.3-4.2,11.7-8.7c1.2-2.2,1.7-4.7,2.6-7c1.1-2.9,3.1-5,5.2-7.3c4.7-5.1,0.1-13.5-6.8-11.7c-6.5,1.7-13.2,2.2-19.9,1.2l-2,14.5
	c9.2,1,20.8-3.1,27.9-9.1c3.3-2.6,5.2-6.5,5.2-10.7c-0.1-4.7-3.4-7.9-4.5-12.2L56.8,29c1.6,2.5,3.3,5,5,7.4l4.6-11.3
	c-4.7,1.6-9.6,2.6-14.6,3.1l7.4,9.7c0.6-2.2,1.3-4.3,2.1-6.3l-15.1-2c-0.1,3.4-2.3,7-4,10c-2.5,4.4,1.7,10.5,6.8,8.8
	c8.7-2.8,12.3-10,12.6-18.8c0-3.8-2.9-7.1-6.7-7.5c-4.1-0.5-6.9,1.9-8.4,5.5c-0.9,2.1-1.6,4.2-2.1,6.3c-1.2,4.5,2.3,10.1,7.4,9.7
	c6.4-0.4,12.7-1.6,18.7-3.6c4.3-1.4,7.7-7.1,4.6-11.3c-2.2-3-4.3-5.8-6.7-8.6c-5.1-6-14.1,0.5-12.5,7.3c0.7,2.4,1.7,4.8,3,7
	c0.6,1.1,0.5,2.3,1,1.2c0.8-1.6-1.6,0.3-1.7,0.3c-5.1,2.8-10.6,5.2-16.5,4.7c-4-0.3-7.4,3.6-7.4,7.4c0,4.4,3.5,6.9,7.4,7.4
	c8.6,1,17.3,0.3,25.5-2.2l-6.8-11.7c-3,3.4-5.8,6.9-7.6,11c-1.5,3.5-2,7.7-5,10.3l6.7-1.8c-3.3-0.6-6.8-2.9-9.9-4.3
	c-3.5-1.6-7-3-10.5-4.6c-2.6-1-5-2.5-7.1-4.4c-2.1-2.2-4.6-4-7.3-5.3c-1-0.4-2.7-1.4-3.8-1.3c-1.3-0.9-1.6-0.6-1,1l0.5-1
	c2.3-2,3.8-6.7,5.3-9.4c3.5-6.3,7-12.5,8.5-19.6L20,10.9c-0.3,3.8-0.4,7.6,0.9,11.2c0.9,2.6,4.9,3,5.7,0L26.8,22.2z"/>
<path d="M52.1,9.1c7.8,4.3,14.9,9.7,21.2,16c2.6,2.6,7.5,6.7,3.3,11.3c-1.5,1.6-5.6,2.9-7.4,3.5c-4.5,1.6-9.3,1.9-14.1,2.4
	c-4.5,0.4-9.1,0.9-13.6,1.3c-4,0.4-6.1-0.7-7.5-4.8c-0.8-2.3-0.9-5-1.2-7.4c-0.7-4.9-1.3-9.8-1.6-14.7C30.9,15.2,31,1.4,30.7,1.3
	c0.3,0.1,0.6,0,0.7-0.3s0-0.6-0.3-0.7l-0.3-0.2C30.6,0,30.3,0,30.1,0.2c-1,0.9-0.8,1.9-0.8,3.2c0,3.7,0.1,7.5,0.4,11.2
	c0.4,6.9,1.2,13.8,2.4,20.6c0.6,3.6,0.4,8.6,4.7,9.5c2.8,0.6,6.7-0.4,9.5-0.6c3.9-0.4,7.7-0.7,11.6-1.1c5.3-0.5,25.6-3.3,21.3-12.4
	C77,26,71.6,22,67.7,18.8c-4.8-3.9-9.9-7.4-15.3-10.3C52,8.3,51.7,8.8,52.1,9.1L52.1,9.1z"/>
<path d="M77.3,36.9c-5.2,11-11.2,21.6-17.9,31.7c-1.7,2.5-3.1,5.4-6.7,5.9c-1.6,0-3.3-0.2-4.8-0.8c-3.2-1-6.3-2.8-9.3-4.4
	c-5.4-2.8-10.7-5.9-15.8-9.3c-5.3-3.4-10.5-7.1-15.4-11c-4-3.3-6.7-4.7-4.3-11.4c1.1-2.7,2.5-5.3,4.1-7.8c2.9-5.1,6.2-10,9.5-14.9
	c3.5-5.1,7.7-14,15-13.2c1,0.1,1-1.4,0-1.5C26.2-0.5,22.9,3.4,20,7.5C15.2,14.2,10.5,21,6.4,28.2c-2.2,3.7-7.9,11.3-6,15.9
	c1.1,2.6,4.6,4.7,6.7,6.4c2.8,2.2,5.6,4.4,8.5,6.4c6.7,4.7,13.6,9,20.8,12.9c4.8,2.6,12.3,7.8,18.2,6c2.6-0.8,3.7-2.8,5.1-4.9
	c2.4-3.5,4.5-7.2,6.7-10.9c4.3-7.4,8.2-14.9,11.8-22.6C78.5,36.8,77.6,36.4,77.3,36.9L77.3,36.9z"/>
<g class="st1">
	<path d="M64.2,95.4c0.1-0.1,0.3-0.1,0.6,0c0.1,0.2,0.2,0.4,0.2,0.6s0,0.4-0.1,0.6c-0.1,0.2-0.2,0.3-0.3,0.5
		c-0.1,0.2-0.3,0.3-0.5,0.4c-0.2,0.1-0.3,0.2-0.5,0.3c-0.3,0.2-0.6,0.2-0.9,0.2c-0.3,0-0.6-0.1-0.9-0.2c-0.3-0.1-0.6-0.3-0.9-0.6
		c-0.3-0.3-0.6-0.6-0.9-0.9c-0.2-0.3-0.5-0.6-0.8-1.1s-0.5-0.8-0.8-1.3c-0.2-0.4-0.4-0.8-0.7-1.2c-0.2-0.4-0.4-0.7-0.5-1
		c-0.1-0.3-0.3-0.6-0.5-0.9c-0.3-0.6-0.5-1.1-0.7-1.5c-0.1-0.2-0.2-0.3-0.3-0.5c-0.2-0.4-0.3-0.9-0.3-1.3c0-0.4,0.2-0.9,0.5-1.2
		s0.7-0.7,1.2-1c0.2-0.1,0.4-0.1,0.6-0.2c0.2,0,0.4,0,0.6,0c0.2,0.1,0.3,0.2,0.4,0.3c0.1,0.1,0.1,0.2,0,0.3c0,0.1-0.1,0.2-0.3,0.3
		c-0.1,0.1-0.2,0.1-0.4,0.1c-0.1,0-0.2,0-0.3,0l0,0l-0.2,0.1l0,0c-0.4,0.2-0.7,0.5-0.8,0.8c-0.1,0.1-0.1,0.3-0.1,0.4s0,0.3,0,0.5
		c0,0.1,0.1,0.3,0.1,0.5c0.1,0.2,0.2,0.4,0.2,0.5c0,0.1,0.1,0.3,0.3,0.5c0.1,0.1,0.2,0.3,0.3,0.5c0.1,0.2,0.2,0.4,0.3,0.5
		c0.1,0.1,0.1,0.3,0.2,0.6c0.1,0.3,0.2,0.5,0.2,0.6l0.2,0.4c0.3,0.5,0.6,1.1,0.9,1.7c0.2,0.3,0.4,0.6,0.5,0.9s0.4,0.5,0.6,0.8
		c0.2,0.3,0.4,0.5,0.6,0.7c0.2,0.2,0.4,0.3,0.7,0.5c0.5,0.3,0.9,0.3,1.3,0c0.2-0.1,0.4-0.3,0.5-0.6C63.9,95.7,64.1,95.5,64.2,95.4z"
		/>
	<path d="M68.8,86.7l0.1,0.1l0.5,0.9l0.5,0.9c1.6,3,1.7,4.9,0.3,5.7c-0.3,0.2-0.6,0.2-0.9,0.2c-0.3,0-0.6-0.2-0.9-0.4
		c-0.6-0.5-1.2-1.1-1.7-1.8c-0.5-0.7-0.9-1.3-1.2-2c-0.1-0.1-0.1-0.2-0.2-0.3s-0.1-0.2-0.1-0.3c0-0.1,0-0.1-0.1-0.1l-0.2-0.3
		c0-0.1-0.2-0.3-0.3-0.7c-0.1-0.2-0.2-0.3-0.2-0.4c-0.1-0.3-0.3-0.5-0.4-0.8c-0.1-0.2-0.2-0.5-0.4-0.9c-0.1-0.3-0.2-0.6-0.3-0.8
		c-0.1-0.3-0.1-0.5-0.1-0.8c0-0.3,0-0.5,0-0.6c0.1-0.2,0.2-0.3,0.3-0.4c0.4-0.2,0.8-0.4,1.3-0.4s0.8,0,1.2,0.2
		c0.4,0.2,0.7,0.4,1.1,0.7c0.4,0.3,0.7,0.7,1,1.1C68.2,85.7,68.5,86.2,68.8,86.7z M64.5,84.3c-0.4,0.2-0.5,0.5-0.4,1
		c0,0.2,0.1,0.4,0.2,0.6c0.1,0.2,0.2,0.4,0.3,0.7c0.1,0.2,0.2,0.4,0.3,0.5c0.1,0.1,0.2,0.3,0.2,0.4c0.1,0.1,0.2,0.4,0.4,0.8
		c0.2,0.4,0.3,0.6,0.3,0.8c0.2,0.4,0.5,0.9,1,1.7c0.5,0.8,1,1.5,1.5,2.2c0.3,0.3,0.5,0.6,0.8,0.7c0.2,0.1,0.4,0.2,0.6,0.1
		c0.2-0.1,0.3-0.3,0.4-0.5c0.1-0.2,0.1-0.5,0-0.8c-0.1-0.6-0.3-1.3-0.6-1.9c-0.3-0.6-0.5-1.1-0.7-1.4c-0.2-0.5-0.6-1.1-1.1-1.8
		c-0.5-0.8-0.9-1.4-1.1-1.8l-0.1-0.3c-0.1-0.3-0.3-0.5-0.6-0.6c-0.2-0.2-0.5-0.3-0.8-0.3C65,84.1,64.7,84.1,64.5,84.3z"/>
	<path d="M78.2,87.7c-1-2.4-2.3-5.1-4-8.2c0-0.1-0.1-0.1-0.1-0.2L74,79.1c-0.2-0.3-0.1-0.5,0.1-0.7c0.1-0.1,0.3-0.1,0.4,0
		c0.1,0.1,0.3,0.2,0.4,0.4l0.6,1.2c0.5,0.9,1,2.1,1.7,3.4c0.6,1.3,1.2,2.5,1.6,3.5c0.4,1.1,0.7,1.7,0.7,1.9
		c-0.2,0.2-0.4,0.4-0.5,0.4c-0.1,0.1-0.3,0.1-0.4,0.1c-0.1,0-0.2-0.1-0.3-0.3c-0.1-0.1-0.2-0.2-0.3-0.3l0,0l0,0
		c-0.1-0.2-0.7-0.8-1.6-1.7c-0.9-0.9-1.9-1.8-3-2.8c-1.1-1-1.9-1.7-2.5-2.1l4.3,8l0.1,0.1c0.1,0.1,0.2,0.1,0.2,0.2
		c0.1,0.1,0.1,0.3,0,0.4s-0.1,0.3-0.3,0.3c-0.3,0.2-0.7,0-1-0.7l-1.5-2.7L71.4,85c-0.2-0.3-0.4-0.8-0.7-1.5
		c-0.3-0.7-0.6-1.2-0.7-1.5c-0.3-0.5-0.3-1,0-1.5l0.1,0.1c0,0,0.1-0.1,0.1-0.1c0.2-0.1,0.8,0.1,1.6,0.8c0.6,0.5,1.3,1.1,2,1.8
		c0.7,0.7,1.5,1.5,2.4,2.5l0.7,0.7c0.8,0.9,1.3,1.3,1.3,1.3S78,87.6,78.2,87.7z"/>
	<path d="M83.2,85.1l-0.3-0.6c-0.1-0.1-0.8-1.2-2.1-3.4c-1.3-2.2-2.1-3.5-2.4-4.1c-0.6,0.3-1,0.5-1.3,0.4c-0.1,0-0.3-0.1-0.3-0.2
		c0-0.1,0-0.2,0-0.3c0.1-0.1,0.2-0.2,0.3-0.3c0.2-0.1,0.6-0.3,1.1-0.5c0.5-0.2,0.9-0.4,1.1-0.5c0,0,0.1,0,0.1-0.1l0.1-0.1
		c0.3-0.2,0.6-0.1,0.7,0.1c0.1,0.1,0.1,0.3,0,0.4s-0.2,0.2-0.3,0.3c-0.1,0.1-0.3,0.1-0.4,0.2l-0.3,0.1l0,0.1l0,0.1
		c0.5,1,1.4,2.5,2.7,4.4c1.2,1.9,2.1,3.3,2.7,4.4c0.1,0.1,0.1,0.3,0,0.4s-0.2,0.3-0.3,0.3l-0.4-0.1l-0.3-0.6L83.2,85.1z"/>
	<path d="M89.6,81l-0.2-0.3l-1.7,0.6c0.1,0.4,0.2,0.9,0.5,1.6c0.2,0.6,0.3,1,0.2,1.2c0,0.1-0.1,0.3-0.2,0.3
		c-0.1,0.1-0.3,0.1-0.4,0.1c-0.1,0-0.3-0.1-0.3-0.2c0,0,0,0,0-0.1l0-0.1c-0.7-3.1-1.6-6.1-2.7-8.9c-0.1-0.2-0.2-0.5-0.3-0.7
		c-0.2-0.4-0.3-0.7-0.4-1S84,73,84,72.9l0.5-0.3c0.2-0.1,0.3-0.1,0.4-0.1c0.1,0,0.2,0.1,0.3,0.2c0.4,0.8,1.2,1.9,2.2,3.4
		c1.1,1.5,1.8,2.6,2.1,3.3c0,0.1,0.2,0.2,0.3,0.4c0.2,0.2,0.3,0.4,0.3,0.4c0.1,0.1,0.3,0.4,0.7,0.9c0.4,0.4,0.6,0.7,0.7,0.9l0,0
		c0.1,0.2,0.1,0.4,0,0.6c-0.2,0.1-0.4,0.2-0.6,0.2c-0.2,0-0.3-0.1-0.4-0.3C90.5,82.2,90.1,81.7,89.6,81z M89,80.2
		c-0.1-0.1-0.2-0.3-0.4-0.6c-0.3-0.5-0.6-1-0.9-1.5c-0.3-0.5-0.8-1.2-1.3-2c-0.4-0.6-0.8-1.1-1-1.6c0.9,2.9,1.6,5,2.1,6.1
		C87.7,80.7,88.2,80.5,89,80.2z"/>
	<path d="M91.2,69.1c0.2-0.1,0.3-0.1,0.4-0.1s0.2,0.1,0.3,0.2c0.1,0.1,0.1,0.2,0.1,0.3c0,0.1-0.1,0.2-0.2,0.3L91,70.3
		c-0.2,0.1-0.3,0.3-0.3,0.7c0,0.4,0,0.8,0.2,1.2c0.3,0.9,0.6,1.5,0.8,2l0,0.1c0.2,0.4,0.5,0.9,0.8,1.5c0.4,0.8,0.6,1.3,0.8,1.6
		c0.2,0.4,0.4,0.7,0.6,1c0.1,0.2,0.3,0.3,0.4,0.5c0.1,0.1,0.3,0.2,0.4,0.3c0.2,0.1,0.3,0.2,0.5,0.2c0.2,0,0.3,0.1,0.5,0
		c0.2,0,0.4-0.1,0.6-0.2c0.1-0.1,0.2-0.2,0.3-0.3c0.1-0.1,0.3-0.1,0.4-0.1c0.1,0,0.2,0.1,0.3,0.2c0.2,0.4,0,0.8-0.5,1.1
		c-0.2,0.1-0.5,0.2-0.8,0.3c-0.3,0.1-0.5,0.1-0.7,0.1c-0.9-0.1-2-1.1-3-3.2l-0.2-0.4c-0.1-0.1-0.2-0.3-0.3-0.5L91.4,76
		c-0.3-0.5-0.5-0.9-0.6-1.2c-0.1-0.3-0.3-0.6-0.5-1.1c-0.2-0.4-0.3-0.8-0.4-1.1c-0.1-0.3-0.1-0.7-0.2-1c0-0.4,0-0.7,0.1-1
		c0.1-0.3,0.3-0.5,0.5-0.8C90.5,69.6,90.8,69.3,91.2,69.1z"/>
	<path d="M100.5,75.9l-0.3-0.6c-0.1-0.1-0.8-1.2-2.1-3.4c-1.3-2.2-2.1-3.5-2.4-4.1c-0.6,0.3-1,0.5-1.3,0.4c-0.1,0-0.3-0.1-0.3-0.2
		c0-0.1,0-0.2,0-0.3c0.1-0.1,0.2-0.2,0.3-0.3c0.2-0.1,0.6-0.3,1.1-0.5c0.5-0.2,0.9-0.4,1.1-0.5c0,0,0.1,0,0.1-0.1l0.1-0.1
		c0.3-0.2,0.6-0.1,0.7,0.1c0.1,0.1,0.1,0.3,0,0.4s-0.2,0.2-0.3,0.3c-0.1,0.1-0.3,0.1-0.4,0.2l-0.3,0.1l0,0.1l0,0.1
		c0.5,1,1.4,2.5,2.7,4.4c1.2,1.9,2.1,3.3,2.7,4.4c0.1,0.1,0.1,0.3,0,0.4s-0.2,0.3-0.3,0.3l-0.4-0.1l-0.3-0.6L100.5,75.9z"/>
</g>
</svg>
