<?xml version="1.0" encoding="utf-8"?>
<!-- Generator: Adobe Illustrator 21.0.0, SVG Export Plug-In . SVG Version: 6.00 Build 0)  -->
<svg version="1.1" id="briefcase" xmlns="http://www.w3.org/2000/svg" xmlns:xlink="http://www.w3.org/1999/xlink" x="0px" y="0px"
	 viewBox="0 0 234.6 216" style="enable-background:new 0 0 234.6 216;" xml:space="preserve">
<style type="text/css">
	.st0{fill:#FFFFFF;}
	.st1{enable-background:new    ;}
	.st2{fill:#E80000;}
</style>
<title>briefcase</title>
<path class="st0" d="M186.1,147.9c6.1-22.6,8.8-46.4,6.7-69.8c-0.4-4.7-8-6.6-8.9-1.2c-4.8,30-9.9,59.6-17.4,89l9.4,2.6
	c5.7-30,7.2-60.7,4.5-91.1c-0.1-2.6-2.3-4.6-5-4.5c-2.4,0.1-4.4,2.1-4.5,4.5c-1.2,12.5-3,25.1-5.1,37.5c-1.9,11.8-3.4,24.1-8.7,35
	l9.5,4c2.4-17.3,9-34,6.7-51.7c-0.7-4.9-8.9-7.5-9.8-1.3c-3.5,22.5-7.4,44.9-13.8,66.7l8.9,1.2c2-21.1,7.1-42.6,2.7-63.7
	c-1.1-5.3-8.1-3.3-8.7,1.2c-1.5,11.3-2.7,22.7-4.2,34c-0.7,5.2-1.5,10.4-2.3,15.6c-0.8,5-1.4,10.4-3.7,15l7.2-0.9
	c-1.2-1.4-0.6-8.3-0.7-10.2c-0.1-3.6-0.2-7.2-0.5-10.8c-0.5-7-2.3-13.8-5.4-20.1c-1.2-2.1-3.9-2.8-6-1.6c-5.1,3-4.8,10.4-5.6,15.6
	c-0.6,3.8-1.2,7.6-1.7,11.4c-0.4,3.1-0.6,6.9-2.7,9.4l7.1,0.9c-2.7-4.9-2.7-12.3-3.6-17.7c-0.8-4.5-7.3-3.9-8.5,0
	c-0.8,2.5-1.5,5.1-2.3,7.6c-0.4,1.4-1.8,3.2,0.6,1.9c1.9-1.1,1.1-1.1,1.3-3.1c0.6-4.7,5.4-9.8,7.9-13.6c5.5-8.2,10.9-16.5,14.6-25.7
	c3.8-9.4,3.9-20.2,8.5-29.2c4.2-8.2,11.8-14.3,20.3-17.6l-6-3.4c2.4,7.3,2.8,15.2,3.3,22.9c0.5,7.4,0.9,14.7,0.9,22.1
	c0.1,15.1-0.8,30.2-2.6,45.2c-0.8,6.5-1.2,13,2.1,18.9c2.9,4.8,7.2,8.4,12.4,10.5c1,0.4,2.9,1.6,4,1.4c1.5,0.7,1.6,0.3,0.3-1.2
	c-0.2-1.4-0.9-1.8-2.1-1.4c-3.1-0.9-6.3-1.5-9.4-2.6c-7.3-2.6-14.4-5.7-21.5-8.8c-5.5-2.4-10.3,5.5-4.8,8.1
	c7.8,3.6,15.6,7.2,23.7,10.2c5.6,2.1,12.6,4.9,18.4,1.9c5.6-2.9,7.7-11.3,1.6-14.9c-2.8-1.7-6.1-1.8-8.9-3.6c-3-1.7-5.2-4.6-6-8
	c-0.9-4.1,0-8.4,0.5-12.4c0.5-4.5,1-8.9,1.3-13.4c0.7-8.7,1-17.3,1-26s-0.3-17.3-0.9-26c-0.6-8.5-1-17.4-3.8-25.5
	c-0.8-2.3-3.5-4.5-6-3.4C158.9,62.1,149,70,143.7,81.1c-3,6.4-3.9,13.4-5.4,20.3c-1.7,7.2-4.5,14.1-8.3,20.4
	c-3.6,6.3-7.6,12.3-11.6,18.3c-3.2,4.9-6.6,10.2-5.5,16.3c0.8,4.3,4.4,9.6,9.6,8.1c5.5-1.7,6.4-10.9,7.9-15.5h-8.5
	c1.1,6.5,1.3,14,4.4,19.9c1.3,2.2,4.1,2.9,6.2,1.6c0.3-0.2,0.6-0.4,0.9-0.7c4.1-4.6,4.7-10.2,5.6-16.1c0.5-3.5,1-7,1.5-10.4
	c0.2-1.5,0.7-8.3,1-8.5l-6-1.6c3.7,7.2,4.4,15.2,4.7,23.1c0.2,6.4-1.4,14.8,3,20c1.9,2.2,5.9,1.5,7.2-0.9c5.1-9.5,5.4-21.5,6.8-32
	c1.6-12.3,3.2-24.7,4.3-37.1l-8.7,1.2c4.7,19.6,0.3,40.7-3.1,60.1c-0.6,2.4,0.9,4.9,3.3,5.5c2.4,0.6,4.8-0.8,5.5-3.1
	c8.1-21.3,11.3-44.1,14.7-66.5h-9.6c2.2,16-4.1,32-6.9,47.6c-1,5.4,6.5,9.5,9.5,4c6.2-11.4,7.8-24.8,9.8-37.4
	c2.2-13.3,3.7-26.8,4.5-40.3H171c3.8,29.5,2.3,59.5-4.4,88.5c-1.4,6.1,7.6,8.6,9.4,2.6c8.8-29.2,13.6-60.2,16.9-90.4l-8.9,1.2
	c3.7,22.4,3.1,45.3-1.9,67.5C181.4,149.4,185.4,150.5,186.1,147.9L186.1,147.9z"/>
<path class="st0" d="M214.2,57.6l-1.6,9.8c-0.3,0.9,0.3,1.9,1.2,2.1c0.9,0.3,1.9-0.3,2.1-1.2c1-2.8,2-5.6,3.2-8.3l-3.9-0.5
	c-1,8.1-3.5,15.7-6.3,23.4c-1.2,3.2,3.3,5.4,5.5,3.2c4.7-4.7,5.9-12,5.8-18.5s-3.8-10.7-9.7-12.7c-3.5-1.1-7.2-1.4-10.7-2
	c-3.8-0.7-7.5-1.5-11.3-1.9c-3.6-0.5-7.3-0.2-10.8,0.8c-4.5,1.4-9,6.2-14,5.5v8.1c9-3.2,19.1-4.2,28.6-4.4c4.1-0.2,8.3,0.4,12.2,1.6
	c3.3,1.2,3.4,2.5,3.3,5.8c-0.1,2.7-0.4,5.3-1,7.9c-1.8,9.3-4.6,18.3-6.4,27.6c-1.8,9.8-2.9,19.7-3.2,29.6c-0.1,3.5,3.9,5.5,6.8,3.9
	c3.4-1.9,4.8-5.1,5.8-8.7c1.5-5.4,2.7-10.9,3.7-16.4c2-10.5,3.2-21.1,3.8-31.8c0.3-5.1-7.5-6-8.8-1.2c-7.7,28.1-6.5,57.7-14.2,85.7
	c-1.3,4.8,6.1,8.3,8.3,3.5c3.1-6.8,5.5-14,7.1-21.3L201,146c0.1,3.3-0.1,6.7-0.7,10c-0.3,1.4-0.6,2.8-1,4.2
	c-0.1,0.5-1.7,4.3-0.4,3.8l5.1,2.1c-3.3-5.1-2.6-13.2-2.9-19.1c-0.3-6.8-0.6-13.6-0.9-20.4c-0.6-13.7-1.4-27.3-1.3-41
	c0-6.1-8.8-5.9-9.4,0c-2.5,25.6-6.7,50.6-10.6,75.9c-0.9,5.6,7.2,8.1,8.7,2.4c6.6-25.3,9.7-52.3,11.2-78.3h-9.4
	c1.3,14.9,1.6,29.9,2.2,44.9c0.3,7.1,0.5,14.1,0.9,21.2c0.4,6.3,0.2,13.3,3.5,18.9c1,1.8,3.1,2.6,5.1,2.1c8.8-3,8.9-19.2,8.6-26.7
	c-0.2-4.8-7.6-6.3-8.7-1.2c-1.4,6.6-3.6,13-6.3,19.1l8.3,3.5c7.9-28,6.8-57.6,14.1-85.8l-8.8-1.2c-0.3,8.6-1.1,17.2-2.5,25.7
	c-0.7,4-1.5,8-2.5,11.9c-0.6,2.6-1.3,10.1-3.8,11.4l6.8,3.9c0.4-12.3,2-24.5,4.8-36.5c2.5-10.8,7.2-22.2,5.8-33.4
	c-1.2-10-13.9-11.7-22-11.8c-10.9,0-23.3,1.6-33.5,5.5c-4.7,1.8-3.7,7.7,1.1,8.3c5.9,0.8,10.1-2.3,15-4.9c5.9-3.1,12.2-1.8,18.5-1
	c4.3,0.5,13.5,0.5,16.1,4.7c2.5,4.1,0.6,13.4-2.4,17.1l5.5,3.2c2.1-8.3,4.2-16.6,3.9-25.1c-0.1-1.1-1.1-1.9-2.2-1.8
	c-0.8,0.1-1.4,0.6-1.7,1.3c-0.8,2.8-1.8,5.6-2.7,8.4l3.4,0.5l1.2-9.9C217.3,56.3,214.5,56,214.2,57.6L214.2,57.6z"/>
<path class="st0" d="M142.5,12.8c-0.4,1.6-0.8,3.2-1.1,4.9c-0.2,0.9,0.3,1.8,1.2,2s1.8-0.3,2-1.2l0,0c0.6-1.5,1-3.2,1.5-4.8
	C146.8,11.5,143.1,10.5,142.5,12.8L142.5,12.8z"/>
<path class="st0" d="M146.6,7.2c0.1-0.4,0-0.9-0.3-1.3c-0.2-0.3-0.6-0.3-0.8-0.1c-0.1,0.1-0.1,0.1-0.2,0.2l-1.3,9.2
	c-0.4,2.7-1.6,5.5-1.3,8.1c0,0.4,0.4,0.8,0.8,0.8c0.4,0,0.7-0.2,0.8-0.6c1-2.4,0.6-5.5,0.9-8.1l1.2-9.3l-1.1,0.3l0.1,0.7
	C145.5,7.9,146.6,7.9,146.6,7.2L146.6,7.2z"/>
<path class="st0" d="M146.1,11.9c5.8,0,5.8-8.9,0-8.9S140.4,11.9,146.1,11.9z"/>
<path class="st0" d="M143.8,7.7c0.7,3.4,1,6.8,1.1,10.3h3.5c-0.1-3-0.5-6-1.1-9c-0.2-1.3-1.9-0.8-2.1,0.3c-0.3,2.9-0.5,5.8-0.4,8.7
	c0.1,2.3,3.5,2.3,3.5,0c0-3.8-0.4-7.5-1.1-11.2C146.9,4.4,143.4,5.4,143.8,7.7L143.8,7.7z"/>
<path class="st0" d="M146.9,11.4c0.4,0,0.6-0.3,0.6-0.6s-0.3-0.6-0.6-0.6s-0.6,0.3-0.6,0.6S146.5,11.4,146.9,11.4L146.9,11.4z"/>
<path class="st0" d="M148.1,35.1c0.4-5.7-0.3-11.2-0.4-16.9l-4.4,0.6c1.3,4.7,2.6,9.3,3.5,14l4.2-2.5c-2.6-2.1-2.7-5.6-3.7-8.6
	s-4.7-2.1-5,0.7c-0.6,5.5-0.4,12.1-3,17.1l5,2.1c0.9-4.8,1.8-9.5,2.7-14.3c0.6-3.1-3.9-5.5-5.4-2.3c-2.6,5.4-5,10.8-7.6,16.1
	c-1.2,2.4-1.7,4.7,1.3,5.8c1.5,0.4,3-0.2,3.8-1.5c3-5.5,5.2-11.7,7.6-17.4l-5.4-2.3c-0.8,4.8-1.5,9.6-2.3,14.4
	c-0.5,2.8,3.5,5.1,5,2.1c2.9-6.1,2.7-13.3,3.4-19.9l-5,0.7c1.3,4,1.6,8.1,5,10.9c1,1,2.7,0.9,3.6-0.1c0.6-0.6,0.8-1.5,0.6-2.4
	c-0.8-5-2.2-9.8-4.2-14.4c-1.1-2.3-4.9-0.7-4.1,1.7c1.7,5.2,1.6,10.9,1.3,16.3C144.6,37.4,148,37.3,148.1,35.1L148.1,35.1z"/>
<path class="st0" d="M77.3,34c-2.2,1-4.2,2.4-5.9,4.1c-1.5,1.6-3.6,2.8-3.8,5.2c-0.1,1.8,1.8,2.8,3.3,2.5c3.7-0.7,5.3-4.3,8.2-6.2
	c1.4-1,3.1-1,4-2.8c0.4-0.9,0.5-1.9,0.2-2.8c-0.1-0.5-0.4-0.9-0.8-1.3c-0.6-0.9-1-0.5-1.1,1.2L78,29.6c-2.5,3.6-6.2,6.3-10.4,7.6
	c-1.6,0.5-2.5,2.2-2,3.7c0.1,0.4,0.4,0.9,0.7,1.2l0.3,0.3c0.7,0.7,1.8,1,2.8,0.7l0.4-0.2c1.1-0.5,2.3-1.7,1.7-3.1
	c-0.1-0.2-0.2-0.5-0.3-0.7l-2,3.9c5.7-1.7,10.7-5.4,14-10.3c1.5-2.2-1-5.1-3.4-4.4c-1.8,0.5-3.2,2-3.5,3.9c-0.2,0.9-0.1,1.8,0.3,2.6
	c0.2,0.4,0.4,0.8,0.7,1.1c0.3,0.4,0.6,1.1,0.4,0.4L78,34c0.5-0.9,0.5-0.5-0.4-0.1c-0.5,0.2-1,0.5-1.5,0.8c-0.9,0.6-1.8,1.3-2.6,2.1
	c-1.4,1.6-3,3.1-4.6,4.5l3.5,0.9c0.5,0.9,0.5,0.5,1-0.4c0.4-0.7,0.5-1.5,0.9-2.1c0.9-1.4,2.9-2.3,4.4-3S78.9,33.3,77.3,34L77.3,34z"
	/>
<path class="st0" d="M130.8,42c-4.1-6.1-9.9-10.8-16.6-13.6c-4.2-1.7-6.7,4.9-3,7.1c5.9,3.5,10.9,7,14.3,13.2l7.6-4.4
	C128.4,36,117,29,107.8,27.2c-5.1-0.8-10.3-1-15.4-0.4c-4.6,0.4-9.6,0.4-12.2,4.8c-1.9,3.1,1.2,7.3,4.8,6.2c6.8-2.1,13.9-2.7,21-1.9
	c7.2,1,16,6.4,19.5,12.9c2.7,5,10.3,0.5,7.6-4.4c-4-7.3-10.6-13.9-18.9-15.9l-2.1,7.5c5.9,1.3,10.4,3.9,14,8.8
	C128.1,47.5,132.8,44.9,130.8,42L130.8,42z"/>
<path class="st0" d="M144.6,47.2c0.9-3.7,1.6-7.5,2.4-11.3c0.4-1.6-0.6-3.1-2.1-3.5c-1-0.2-2,0-2.7,0.7c-3.6,2.9-3.5,6.8-5.8,10.5
	l5.8,2.5c0.3-2.2,0.9-4.3,1.9-6.3l-6.2-2.6c-2,4.9-3.3,9.9-5.6,14.7l6.2,3.6c2-4.2,3.4-8.5,5-12.8s-4.7-6.4-7-3
	c-3.1,4.7-5.3,10.1-7.4,15.3c-1.7,4.3,5.4,7.2,7.4,3.1L141,49c2.4-4.7-4.8-8.9-7.1-4.2l-4.5,9.2l7.4,3.1c1.8-4.7,4.1-9,6.1-13.6
	l-7-3c-0.8,3.9-2,7.6-3.8,11.2c-1.9,4.1,4.1,7.8,6.2,3.6c2.7-5.2,4.7-10.8,5.9-16.5c0.9-4.3-5.2-6-6.5-1.8c-0.8,2.4-1.4,4.8-1.8,7.3
	c-0.5,3.4,3.9,5.8,5.8,2.5c1.8-3.1,1.9-6.9,4.4-9.6l-4.9-2c-0.3,3.6-0.8,7.2-1.4,10.8C139.4,49,143.9,50.3,144.6,47.2L144.6,47.2z"
	/>
<path class="st0" d="M151,47.3c1-5.6,0.2-10.9,0.4-16.5c0.1-2.7-3.4-5.1-5.8-3.3c-5.1,3.9-2.9,11.2-2.3,16.7l8.2-1.1l-0.4-1
	l-7.7,2.1c1.3,1.8,2.4,3.7,3.2,5.8c1.5,4,8.2,3.8,8-1.1c-0.2-4-1-8-2.4-11.8c-1.7-4.8-9.4-2.6-7.6,2.1c1.2,3.1,1.8,6.4,1.8,9.7
	l8-1.1c-1-2.8-2.3-5.4-3.9-7.8c-2.2-3.1-7.9-2.3-7.7,2.1c0,1.1,0.2,2.2,0.6,3.2c1.5,4.1,8.7,3.9,8.2-1.1c-0.2-2.2-0.4-4.5-0.7-6.7
	c-0.2-1.4-1-3.6-0.1-4.8h-6.6c2.3,4,1.9,9.4,1.4,13.8C145.3,49.6,150.5,50.4,151,47.3L151,47.3z"/>
<path class="st0" d="M150.2,72.2c1.3-5,2.8-9.8,4.7-14.6L144.1,59c0.7,1.8,1,3.8,0.8,5.8H157c-0.1-7.6-6.1-13.1-5.9-20.7
	c0.1-6-8.4-8.2-11.3-3.1c-3.9,6.8-4.4,14.2-5.6,21.8c-1.3,8.4-3.6,16.6-5.8,24.8c-2.3,8.3-4.1,16.7-5.4,25.2
	c-0.7,4.4-1.2,8.9-1.6,13.3c-0.3,3.7,0.2,9-1.7,12.3l4.2-3.2l-0.8,0.1l5.4,0.7c2.9,2.1,1.7,1.3,1.5-1.3c-0.1-1.6-0.2-3.2-0.3-4.8
	c-0.2-3.2-0.3-6.5-0.3-9.7c-0.1-6.3-0.4-13.1,0.6-19.4c1.5-8.9-11.2-12.9-13.8-3.8c-5.4,18.5,0.6,38.1-5.3,56.5l14.5,2
	c0.5-11.4,1.4-22.7,2.1-34.1c0.3-5.5,0.5-10.9,0.7-16.4c0.1-2.4,0.1-4.8,0-7.2s-1.1-5.3-0.9-7.7l-1,3.7c4.1-7.5,9.1-14.5,15-20.7
	c6.5-6.9,8.1-14.8,8.5-24c0.6-10.8-16.5-10.9-16.9,0c-0.1,3.6-0.1,7.5-2,10.7c-2.3,3.9-5.9,7.1-8.4,11c-4.4,6.8-11.1,15.3-9.5,23.7
	c1.9,9.8,0.8,20,0.2,29.9c-0.6,10.4-1.4,20.8-2.6,31.2c-0.4,3.6,3.1,6.8,6.4,7.3c3.9,0.5,6.7-1.8,8.1-5.3c7.4-18,0.9-38,4.9-56.6
	l-14.1-1.9c0.3,7.4-0.3,14.8-0.1,22.3c0.1,6.6-0.4,14.4,1.3,20.7c1.5,5.9,8.7,9.7,13.7,5c4.6-4.3,4-13.1,4.4-18.9
	c0.9-14.2,3.8-27.8,7.1-41.6c1.6-6.8,3.2-13.5,4.1-20.4c0.9-6.3,0.8-13.3,3.9-19L139,44.1c-0.1,3.8,0.6,7.5,2,11
	c1.3,3.2,3.8,6.2,3.9,9.7c0.3,7.8,12.3,7.8,12.1,0c-0.1-4.1-1.1-8.1-2.9-11.7c-2.8-5.7-10.4-2.3-10.9,3c-0.4,4.6-1.2,9.2-2.1,13.7
	c-1.2,5.8,7.4,8.3,8.9,2.5L150.2,72.2z"/>
<path class="st0" d="M165.9,159.9c0.9-5.6,1.3-11.3,1.3-17c0-5.9-0.9-11.7-0.6-17.5c0.3-7.3-11.6-9.1-12.9-1.8
	c-0.9,5.3-0.7,10.7-1.1,16c-0.2,2.5-0.5,5-0.9,7.5c-0.2,1.2-0.5,2.5-0.7,3.7c-0.1,0.6-0.3,1.2-0.5,1.8c-0.7,2,0.2,1.6,2.9-1l5,2.1
	c-2.3-1.9-3.2-6.7-4-9.4c-1.2-3.6-1.8-7.4-2-11.2h-14.1c0.5,7.7,1.8,15.3,1.7,23.1v1.9c-0.4,2.8,1.1,2.2,4.5-1.7
	c-0.2-0.9-2.6-2.5-3.2-3.2c-1.7-2.3-2.7-4.9-3.1-7.8l-9.4,9.4l1.1,0.4l-3.4-2c0.7,0.5,0.9,1.4,0.7,2.2l2-3.4h-0.1l3.9-1.1
	c-0.6,0.1-0.8-0.8-0.8-1.7l-15,2c0.1,2.7,1,2.3,2.6-1.3h4c1.4,1.8,1.9,2.1,1.5,0.9l-11.2,6.4l0.4-0.6l1.1-3.9l2.5-1.7h4.1l3.7,3.9
	l-11.2,8.6c1.6,0.8,1.7,1.3,2.4,2.9l6.7-11.7l0.4-0.3l-7.8,13.4c15.1,6.4,31.4,8.5,46,16.2c6.8,3.6,14.3,7.4,22.2,6.8
	c10.4-0.8,10.6-12.3,12.8-20.1l-16.1-2.2c0.4,3.4,1,7.6,0.3,11l2.1-3.7c4.5-4.6,3.2,0.5,2.2-2.1c-0.3-0.9-1.1-1.8-1.5-2.7
	c-0.9-2.5-1.6-5.1-1.9-7.8c-0.9-5.9-1.4-11.9-1.7-17.9c-0.6-12.4-1.1-25-1.1-37.4c-0.1-5.6,0.6-11.3,2.3-16.7
	c1.7-5.5,3.8-10.8,4.5-16.5s0.1-12.5-5.6-15.7c-4.7-2.7-11.7-2.6-16.9-3.6l-2.2,16.4c4.9-0.6,9.9-1.2,14.8-1.8
	c4.6-0.6,9.4-1.6,14.1-1c9.4,1.1,17.5,4.9,27.2,2.3c7.7-2.2,8.1-11.8,2.1-16c-10.3-7.2-29.8-9.8-34,5.5c-1.8,6.4,0,13.9,0.2,20.4
	c0.2,7.8,0.2,15.5,0.9,23.3c0.7,7.3,11.1,9.6,13.4,1.8c2.9-10.1,3.1-20.5,2.6-30.9c-0.1-2.4-0.4-4.7-0.5-7.1c0-0.5,0.5-4.1-0.5-2.4
	c-1.2,0.7-0.9,1,0.8,0.6c0.8,0,1.6,0.1,2.3,0.4c1.6,0.4,3,1.1,4.3,2.1l3.9-14.7c-4.1,0.9-8.1-0.6-12.1-1.5
	c-4.2-1.1-8.6-1.6-12.9-1.7c-9.5,0.2-19.3,2.7-28.6,4.3c-7.9,1.3-8,14.9,0,16.1c2.8,0.4,5.5,0.9,8.3,1.4c1.5,0.3,4.6,0.5,5.5,1.1
	l-3-3c0.9,1.7-1.1,6.6-1.6,8.4c-0.9,3.1-2,6.2-2.9,9.3c-1.6,6.6-2.3,13.4-1.9,20.3c0.3,14.4,0.4,28.9,1.5,43.3
	c0.9,11.9,1.4,27.4,11.5,35.5c5,4,12.9,5.4,18,0.7c5.7-5.3,3.7-15.2,2.6-22c-1.3-8.1-14.1-7.6-15.9,0c-0.7,3.1-1.5,9.1-3.2,11.4l3-3
	l-1,0.4l4.2-1.1c-5,0.4-9.5-2.2-13.7-4.5c-4.9-2.7-10-5-15.2-6.8c-10.9-3.7-22.3-5.4-33.2-9.1c-8.6-2.9-13.3,9.7-6,14.2
	c2.3,1.4,4.8,2.1,7.4,2.3c6.4,0.6,8.8-6.8,6.6-11.6c-1.6-3.6-4.5-6.5-8-8.3c-5.7-2.9-13.1,1.9-11.2,8.6s10.8,9.7,15.9,4.4
	c6.6-6.8,1-15.1-5.5-19c-4.6-2.8-11.7,0.7-11.2,6.4c0.5,7,4.1,14.6,12.4,13.9c8.8-0.8,11.4-10.4,9.1-17.6c-3-9.5-16.5-5.5-14.7,4.1
	c1.7,9.2,12.9,21,22.3,12.5c7.7-6.9,1.9-20.8-6.6-23.7c-6.8-2.3-11.3,5.7-8.6,11.2c4.1,8.5,14,25.5,25.6,17.6
	c5.2-3.5,5.1-10.1,5-15.7c-0.2-7.2-0.5-15.1-2.6-22c-2.6-8.8-15.6-5.1-13.7,3.8c1.8,8.2,5.5,37.8,19.9,29.8c6-3.3,6.9-11.5,7.7-17.6
	c1-7.6,1.5-16,0.2-23.5l-12,5.1c4,8.7,3.1,20.7,2.2,30C156.2,164,165.2,165.3,165.9,159.9L165.9,159.9z"/>
<path class="st0" d="M176.9,128.2c3.9-9.6,5.2-19.3,6.5-29.5c0.6-4.8-5.3-6.7-8.8-5.1c-4.4,2.1-6.6,6.8-8.3,11.2
	c-0.9,2.3-1.6,4.7-2.3,7.1l-1.2,3.6c-0.1,0.2-0.9,4.1-1,4.2l4.8-2l-0.9,0.1l6.6,8.6c0.9-5.5,1.8-11,2.6-16.5
	c0.8-5.4,0.9-11.2,2-16.5c1.4-6.3-6.7-12.3-11.6-6.7c-7,7.9-8.1,20.6-9.8,30.7c-0.9,5.3-1.7,10.7-2.6,16c-0.9,5.8-2.5,11.8-1.6,17.6
	s9.9,6.5,12.3,1.6c2.2-4.5,2.5-9.5,3.3-14.4s1.6-10,2.4-15c1.4-8.9,1.8-20.4,6.9-28.1l-12.9-3.5c0.7,10.2-1.9,21.3-4.1,31.2
	c-0.9,4.1,1.9,8.9,6.6,8.6c7.5-0.4,8.8-7.1,10.6-13.2c1.7-5.7,3.8-11.2,6.2-16.7l-10.7-1.4c2,8.5,0.4,17.8-2.1,26
	C168.3,130.9,175.1,132.5,176.9,128.2L176.9,128.2z"/>
<path class="st0" d="M197.8,86.8c0.6-2.3,1.2-4.6,1.9-6.8l-7.7-2.1c-1.1,6.1-1.4,12.4-1,18.6c0.2,5.3,7,5.8,8.8,1.2
	c2-5.2,4.1-10.4,6.4-15.4l-10.4-4.4c-2.4,7.2-3,15.4-4.3,22.8c-0.8,4.6,4.2,10.3,8.9,6.8c3.7-2.7,4.3-5.9,5.4-10.2
	c1.3-4.8,2.5-9.5,3.8-14.3c1.6-6.1-7.7-10.6-10.6-4.5c-2.6,5.6-3.1,11.1-3.9,17.1c-0.9,6.7-4.1,10.6-9,15c-1.4,1.4-2,3.4-1.4,5.3
	c1.4,3.3,2.8,6.7,4.2,10c1.6,3.9,7.4,5.8,9.9,1.3c2.7-5.1,3.9-10.7,5.1-16.3h-9.1c0.9,6.4,1,12.8,2,19.1c0.8,5.4,8.3,3.4,8.8-1.2
	c0.2-1.7,0.3-3.4,0.2-5.2c-0.3-4.6-6.9-5.8-8.2-1.1L197,124c1.3-0.5,1.4-1.2,0.5-1.9c-0.2-0.8-1.5-2.3-1.9-3.2
	c-1.2-2.7-2.1-5.5-2.8-8.4c-1.8-6-3.2-12-4.4-18.2c-0.5-3-4.8-3.8-6.7-1.8c-4.9,5.3-5.2,13.9-6.6,20.6c-1.6,7.6-4.8,16.3-3.1,24.1
	c0.6,2.6,3.9,2.5,5.2,0.7c4.1-5.7,4.6-13.8,6-20.5l2.1-10.6c0.6-3.2,0.9-6.6,2.7-9.3l-7.4-1c3.3,10.1,3.8,22.3,9.6,31.4
	c1.8,2.9,4.5,6,8.1,5.9c4-0.1,6.1-3.7,7.1-7.1l-8.2-1.1c0.3,1.4,0.1,2.8-0.6,4l8.8,1.2c0.4-6.8-0.7-13.7-1.6-20.5
	c-0.6-4.7-8.2-4.3-9.1,0c-1.1,4.9-2.4,9.2-5.2,13.3l9.9,1.3c-1.4-3.3-2.7-6.7-4.1-10l-1.4,5.3c5-4.3,9.4-8.7,11.3-15.2
	c1.9-6.1,1-13,3.9-18.8l-10.6-4.5c-1.9,6.6-3.3,13.8-5.9,20.1l2.8-3.6l-0.9,0.7l8.9,6.8c1.4-8,3.7-16.4,3.9-24.5
	c0.1-6.3-9.8-7.9-11.2-1.5c-1.3,5.8-3,11.7-4.6,17.4h8.6c-0.8-5.5-0.4-10.8,0-16.3c0.4-5.1-7.8-5.2-8,0c-0.1,2.3-0.3,4.7-0.5,7
	C191.2,89.6,197,90.2,197.8,86.8L197.8,86.8z"/>
<path d="M219.7,92.6c4.4,3.2,7.5,7.5,11.5,11.2c0.2,0.2,0.4,0.2,0.6,0c0.2-0.2,0.2-0.4,0-0.6c-3.4-4.2-7.3-8-11.8-11.1
	C219.7,91.9,219.5,92.4,219.7,92.6L219.7,92.6z"/>
<path d="M218.6,101.7c2.1,0.7,4.2,1.6,6,2.9c1.2,0.8,2,2.2,3.3,2.7c0.5,0.2,0.9-0.6,0.4-0.9c-0.9-0.4-1.2-1.2-1.9-1.8
	c-0.6-0.5-1.3-1-2.1-1.4c-1.7-1.1-3.5-1.9-5.5-2.3c-0.2,0-0.5,0.1-0.5,0.4C218.3,101.4,218.4,101.6,218.6,101.7L218.6,101.7z"/>
<path d="M227.9,101.1c0.3,0,0.6-0.3,0.5-0.7c0-0.3-0.2-0.5-0.5-0.5s-0.6,0.3-0.5,0.7C227.4,100.9,227.6,101.1,227.9,101.1z"/>
<path d="M227.7,100.4c-1.3,0.4-2.7,1.8-2.6,3.3c0,0.2,0.2,0.3,0.3,0.2c0.1,0,0.2-0.1,0.2-0.2c0.1-0.6,0.3-1.2,0.6-1.7
	c0.4-0.6,0.9-1,1.6-1.3C228.1,100.7,228,100.3,227.7,100.4L227.7,100.4z"/>
<path d="M225.6,99.9c-0.9-1-2-2.4-3.6-2.1c-0.6,0.1-1,0.5-1.2,1c-0.1,0.7,0.2,1.3,0.7,1.8s1.1,1,1.7,1.3c0.5,0.4,1.3,0.4,1.8-0.1
	c0.7-0.5,1.4-2.3,0-2.5c-0.4-0.1-0.7,0.4-0.4,0.7c0.3,0.3,0.2,0.7,0,1c-0.1,0.1-0.2,0.1-0.3,0.2c-0.4,0.1-0.7,0-1-0.3
	c-0.6-0.3-1-0.7-1.4-1.2c-0.8-1.3,1-1.2,1.6-0.8c0.6,0.4,1.2,0.9,1.7,1.4c0.1,0.1,0.2,0.1,0.3,0S225.7,100,225.6,99.9L225.6,99.9z"
	/>
<path d="M228.6,127.6c-1.7,1.7-3.7,3.2-5.9,4.3c-1.4,0.7-4.1,1-5.3,2.1s-0.7,2.3,0.7,2.8c5.9,2.1,13.5-3.2,16.3-8
	c0.2-0.3,0.1-0.7-0.2-0.8c-0.3-0.2-0.7-0.1-0.8,0.2c-1.4,2.4-3.5,4.3-5.9,5.7c-1.1,0.6-6.6,3.1-7.9,1.9c-1.8-1.6,0.8-1.9,1.6-2.2
	c1-0.4,2-0.9,2.9-1.5c1.8-1.2,3.4-2.6,4.8-4.3C229.2,127.7,228.8,127.3,228.6,127.6L228.6,127.6z"/>
<path d="M222.2,132c-1.2-1.4-3.9-1.3-5.6-1c-1.9,0.2-3.4,1.7-3.6,3.6c-0.1,0.2,0.1,0.4,0.3,0.5s0.4-0.1,0.5-0.3l0,0
	c0.8-1.9,1.5-2.9,3.7-3.2c1.3-0.1,3.4-0.3,4.4,0.7C222,132.6,222.4,132.2,222.2,132L222.2,132z"/>
<path d="M220.1,137.3c-0.7,1.4-3,1.4-4.3,1.4c-0.4,0.1-0.9-0.1-1.2-0.4c-0.6-0.4-0.6-0.6-0.6-1.3s0.1-1.6,0.1-2.3
	c0-0.2-0.2-0.4-0.4-0.4s-0.3,0.1-0.3,0.3c-0.4,1.3-0.4,2.7-0.1,4c0.3,0.9,1,1,1.9,1c1.7,0.1,4.7-0.1,5.5-2.1
	C220.7,137.3,220.2,137.1,220.1,137.3L220.1,137.3z"/>
<path d="M167.6,98.7c3.8,1,8.8,3,7.5,7.9c-1.3,4.7-6.4,5.5-10.5,5c-0.5-0.1-0.6,0.7-0.1,0.8c4.6,0.8,10.4-0.7,11.5-5.9
	s-4.1-7.4-8.3-8.3c-0.2,0-0.3,0.1-0.3,0.2C167.4,98.6,167.5,98.7,167.6,98.7L167.6,98.7z"/>
<path d="M164.6,111.5c4.1,1.7,7.4-2,8.4-5.7c0.8-3.1-1.9-7.3-5.5-6.1c-0.2,0.1-0.4,0.3-0.3,0.5c0.1,0.2,0.2,0.3,0.4,0.3
	c3.5,0.2,5.4,2.6,4.1,6c-1.1,2.9-3.7,5.5-7,4.3C164.3,110.7,164.2,111.3,164.6,111.5L164.6,111.5z"/>
<path d="M167.6,100.2c2-9.5,3.8-19,5.6-28.5c1-5.1,1.9-10.2,2.9-15.2c0.2-1.9,0.6-3.8,1.1-5.7c1.2-3.5,2-3.5,5.6-3.5
	c9.6,0.1,19.2,1.3,28.5,3.7c3.3,0.9,11.4,2,12.9,5.5c0.7,1.6-0.5,6-0.7,7.8c-0.3,2.9-0.7,5.7-1.1,8.6c-1.3,9-3.6,17.7-5.2,26.7
	c-1.4,8.2-1.4,16.7-2.4,25c-2.3,18.3-2.9,38.7-11.5,55.4c-0.4,0.8,0.8,1.5,1.2,0.7c7-13.4,8.1-28.8,10-43.5
	c2.1-15.9,2.8-31.8,6.2-47.5c1.7-7.7,3-15.5,3.9-23.4c0.5-3.9,2.8-10.3-0.9-12.8c-3-2-8.6-2.9-12.1-3.8s-7.1-1.6-10.6-2.2
	c-7.8-1.2-15.8-1.6-23.7-1.2c-0.3,0-0.5,0.2-0.6,0.4c-3.3,17.8-6.8,35.6-9.7,53.4C166.9,100.4,167.5,100.6,167.6,100.2L167.6,100.2z
	"/>
<path d="M164.1,112c-3.1,13.4-5.9,27.1-7.8,40.7c-0.5,3.9-1.1,8.5,1.5,11.8c3,3.8,8,2.4,12,4.1c0.5,0.2,0.8-0.7,0.3-0.9
	c-1.4-0.5-2.8-0.9-4.2-1c-1.4,0-2.8-0.2-4.2-0.5c-3.5-1.8-5.3-4.4-5.2-8c-0.4-5.3,1.3-11.4,2.2-16.6c1.7-9.9,3.7-19.8,6-29.6
	C164.7,111.7,164.2,111.6,164.1,112L164.1,112z"/>
<path d="M169.2,168.4c2.8,0.6,5.1,2,7.8,2.7c2.3,0.6,4.7,0.5,7.1,0.7c3.4,0.3,6.9,1,10.3,1.5c1.1,0.2,4.5,0.3,5.4,0.9
	c2.8,1.8,2.5,4.5,2.8,7.3c0.1,0.5,0.8,0.6,0.8,0c0-2.3,1-5.8-1.1-7.5s-6.2-1.4-8.6-1.8c-3.8-0.6-7.5-1.3-11.3-1.5
	c-4.7-0.3-8.5-2.2-13.1-2.9C169,167.7,168.8,168.3,169.2,168.4L169.2,168.4z"/>
<path d="M198.2,180c1.6,0.9,3.4,1.3,5.2,1.2c0.5-0.1,0.3-0.8-0.1-0.9c-0.8-0.1-1.6,0-2.5-0.1c-0.8-0.1-1.6-0.3-2.4-0.6
	c-0.1,0-0.3,0.1-0.3,0.2C198.1,179.8,198.2,179.9,198.2,180z"/>
<path d="M170.3,73.7c-5.5-1-10.8-2.6-16-4.6c-0.2-0.1-0.4,0-0.5,0.2c-2.9,6-3.8,12.3-4.7,18.8c-1.1,7.8-3.4,15.2-5.2,22.8
	c-3.7,14.8-6.3,29.8-7.9,44.9c-0.4,4.3-0.9,8.5-1.8,12.7c-0.6,3.2-2.6,7.2-2.6,10.4s2.7,3.4,5.5,3.6c7.4,0.6,13.4,4.7,20.4,6.9
	c7.3,2.3,15.2,2.3,22.6,3.7c4.7,0.9,9.2,2.5,13.9,3.7c1.2,0.3,2,0.9,2.9,0c1.5-1.4,1.3-6,1.6-7.9c0.8-4.8,1.5-9.7,2.1-14.5
	c0.1-0.7-0.9-0.9-1-0.3c-0.7,5.2-1.5,10.3-2.3,15.5c-0.1,0.8-0.4,5.2-1,5.8c-1.5,1.5-4.9-0.6-6.6-1.1c-8.5-2.5-17.1-3.1-25.8-4.5
	c-8.3-1.4-15.3-6.6-23.5-8c-1.1-0.2-3.6,0.1-4.5-0.3c-3.3-1.6-2.9-4-2.1-6.8c1-4,1.8-8.1,2.4-12.2c2.5-18.6,4.8-36.9,9.6-55.1
	c2.1-8.3,3.8-16.7,5.1-25.1c0.5-2.9,1-11.1,4.9-11.9c1.5-0.3,5.5,1.7,7.1,2.1c2.4,0.6,4.8,1,7.3,1.4
	C170.4,74.3,170.6,73.8,170.3,73.7L170.3,73.7z"/>
<path d="M173.5,64.1c-6.1-0.7-12.3-1.5-18.4-2c-2.6-0.2-3.9-0.3-5.1,2.1c-1.4,2.8-2,6.6-2.8,9.5l-2.8,9.5c-1.8,6-3.5,12.1-5.3,18.1
	l-21.3,73c-0.1,0.3,0.1,0.6,0.4,0.7c0.1,0,0.2,0,0.3,0c4.6-0.9,9.3-0.5,13.7,1.2c0.7,0.3,1-0.8,0.3-1.1c-2.3-0.9-4.6-1.4-7.1-1.6
	c-1.9-0.1-5.1,1.1-6-0.7c-0.7-1.4,2-7,2.5-8.6l2.8-9.5l10.7-36.7c3.5-12.1,7-24.2,10.5-36.3c0.9-3.2,1.8-6.4,2.8-9.5
	c1-3.4,1.1-8.5,5.4-9.2c2.6-0.4,6.1,0.6,8.7,0.8l10.6,1C173.9,64.7,173.9,64.2,173.5,64.1L173.5,64.1z"/>
<path d="M175.9,49.9c-6.6,1.1-13.2,2.6-19.7,4.3c-0.2,0.1-0.4,0.3-0.3,0.5c0.1,0.2,0.3,0.4,0.5,0.3c6.5-1.8,13-3.4,19.6-4.7
	C176.4,50.3,176.2,49.9,175.9,49.9z"/>
<path d="M157.1,54.8c-2.3-8.9-4.2-18-5.6-27.1c-1.4-8.7-1.2-18.5-4.2-26.9c-0.2-0.6-1.1-0.3-0.9,0.3c3,8.3,2.9,18.1,4.4,26.8
	c1.5,9.1,3.5,18.1,6,27c0,0.1,0.2,0.2,0.3,0.2C157,55.1,157.1,55,157.1,54.8L157.1,54.8L157.1,54.8z"/>
<path d="M145.8,0.1c-3.9,6.2-2.9,13.9-4.9,20.7c-2.3,7.8-5.8,15.4-9.2,22.8C124.9,58.1,116.8,72,107.5,85c-0.4,0.6,0.5,1.1,0.9,0.5
	c9.3-13,17.4-26.8,24.1-41.3c3-6.4,5.7-13,8.1-19.8c2.6-7.6,1.4-17.2,5.6-24c0.1-0.1,0-0.3-0.1-0.3C146,0,145.9,0,145.8,0.1
	L145.8,0.1L145.8,0.1z"/>
<path d="M107.6,84.8c2.3,27.5-2.7,55-0.8,82.5c0,0.6,0.9,0.6,0.9,0c-1.3-27.5,3-55,0.6-82.5C108.3,84.3,107.6,84.3,107.6,84.8z"/>
<path d="M107.4,167.7c3.3,2,7,3.2,10.9,3.5c0.6,0,0.6-0.9,0-0.9c-3.7-0.3-7.3-1.3-10.6-3.1c-0.1-0.1-0.3,0-0.4,0.2
	C107.3,167.5,107.4,167.6,107.4,167.7L107.4,167.7z"/>
<path d="M155,56c-1.4,2.3-2.9,4.6-4.1,7c0,0.1,0,0.2,0.1,0.2s0.2,0,0.2-0.1c1.5-2.2,2.7-4.7,4.1-7c0-0.1,0-0.2-0.1-0.3
	C155.1,55.9,155.1,55.9,155,56L155,56z"/>
<path d="M147.8,70.3c-12.2,32.2-23.4,65.1-38.2,96.2c-0.2,0.5,0.5,0.9,0.8,0.4c14.7-31.3,26-64.1,37.8-96.6
	C148.2,70.2,147.9,70.1,147.8,70.3L147.8,70.3z"/>
<path d="M132.2,42.1c-3.9-9.7-15.4-16.3-25.4-17.1c-11.1-0.9-23.2-0.3-31.9,7.5c-0.4,0.4,0.2,1.1,0.7,0.7c7.9-7,18.6-7.9,28.7-7.4
	c6.6,0.3,12.3,1.7,17.6,5.9c3.8,3,7.9,6.3,9.8,10.8C131.7,42.7,132.3,42.5,132.2,42.1L132.2,42.1z"/>
<path d="M126.6,53.9c-6.7-18-33.8-21.5-49.1-13.5c-0.4,0.2-0.1,0.9,0.4,0.7c14.9-7.8,41.6-4.5,48.2,13
	C126.2,54.3,126.7,54.2,126.6,53.9z"/>
<path d="M78,41c-0.4-2.3-0.9-5.2-2.1-7.2c-0.4-0.7-1.6-1.4-2-0.2c-0.1,0.3,0.3,0.4,0.5,0.3c0.9-0.7,2,3,2.2,3.6
	c0.4,1.2,0.7,2.5,1,3.7C77.6,41.4,78.1,41.3,78,41L78,41z"/>
<path d="M77.2,40c-1.3,2.5-3.6,3.7-6.1,4.7c-1.8,0.7-2.6,0.5-3.8-1.1c-0.8-0.9-1.4-1.9-1.9-3c-0.8-0.9-0.6-1.8,0.6-2.7l1.4-0.4
	c0.8-0.3,1.6-0.6,2.4-0.9c1.8-0.8,3.5-1.8,5-3.2c0.1-0.1,0.1-0.4,0-0.5s-0.3-0.1-0.4-0.1c-1.6,1.1-3.3,2.1-5,3
	c-1.4,0.6-3.6,0.8-4.8,1.9c-1.7,1.6,0.6,4.2,1.5,5.5c1.7,2.5,2.3,3.3,5.2,2.2c2.7-1.1,5.1-2.4,6.3-5.1C77.7,40,77.3,39.7,77.2,40
	L77.2,40z"/>
<path d="M67.3,43.4c0.4-0.5,1.1-0.7,1.6-0.3c0.1,0,0.1,0.1,0.2,0.1c0.5,0.6-0.3,1.4-0.9,1.3c-0.2,0-0.3,0.1-0.4,0.2
	c0,0.1,0,0.2,0.1,0.3c1.1,0.7,2.4-0.9,1.8-2c-0.5-0.7-1.5-0.9-2.3-0.4c-0.2,0.1-0.4,0.3-0.5,0.6c0,0.1,0,0.2,0.1,0.3
	C67.2,43.5,67.3,43.5,67.3,43.4L67.3,43.4z"/>
<path d="M65.4,40.5c0.6-0.6,1.7-0.6,2.3,0c0.1,0.1,0.2,0.2,0.3,0.3v-0.3c-0.5,0.7-1.3,1-2.1,1c-0.2,0-0.3,0.2-0.3,0.3
	s0.2,0.3,0.3,0.3c1.1,0,2.1-0.5,2.7-1.4c0.1-0.1,0.1-0.2,0-0.3c-0.6-1-2-1.4-3-0.7c-0.2,0.1-0.3,0.2-0.4,0.4
	C64.9,40.3,65.2,40.6,65.4,40.5L65.4,40.5z"/>
<g class="st1">
	<path d="M42.3,127L42.3,127c-0.2-0.2-0.2-0.3-0.2-0.5s0.1-0.3,0.2-0.4c0.1-0.1,0.2-0.1,0.3-0.1s0.2,0,0.3,0.1c1.2,1,2.9,2.3,5.1,4
		c2.3,1.7,4,3.1,5.1,4c0.1,0.1,0.3,0.3,0.3,0.4s0.1,0.3,0.1,0.5c0,0.1,0,0.3-0.1,0.4c-0.1,0.1-0.2,0.1-0.3,0.1s-0.3-0.1-0.5-0.2
		c-0.8-0.7-1.8-1.4-2.9-2.4c-1.2-0.9-2.2-1.7-2.9-2.4l-0.7-0.6c0.3,0.4,0.8,1,1.5,2s1.3,1.7,1.7,2.1l0.1,0.1l0.2,0.3
		c0.1,0.1,0.2,0.2,0.3,0.3s0.1,0.2,0.2,0.3c0.2,0.3,0.1,0.5,0,0.7c-0.3,0.3-0.8,0.1-1.7-0.6c-0.5-0.4-1-0.8-1.7-1.1
		s-1.4-0.8-2.4-1.2s-1.6-0.7-1.9-0.9c0.6,0.6,1.2,1,1.7,1.4c0.6,0.5,1.6,1.3,2.9,2.3c1.4,1.1,2.3,1.8,2.9,2.3
		c0.2,0.2,0.3,0.4,0.3,0.6c-0.2,0.2-0.4,0.3-0.6,0.3c-0.2,0-0.5-0.2-0.7-0.4s-0.6-0.5-1.1-1s-0.9-0.8-1.1-1
		c-0.6-0.5-1.5-1.2-2.7-2.2c-1.1-0.9-2-1.6-2.7-2.2c-0.6-0.5-1.2-1-1.8-1.5l0.1-0.6c0.1-0.1,0.4-0.1,1,0c0.8,0.3,2.2,0.9,4.2,1.9
		c0.7,0.4,1.4,0.8,2.1,1.1c0.7,0.4,1.1,0.6,1.2,0.7c-0.2-0.2-0.4-0.5-0.8-1c-0.1-0.1-0.2-0.3-0.3-0.4c-0.1-0.1-0.2-0.2-0.3-0.3
		c-0.7-0.9-1.2-1.5-1.5-1.9s-0.8-0.9-1.3-1.5C43.4,128,42.8,127.5,42.3,127z"/>
	<path d="M52.2,125.9l4.2,3.5c0.6,0.5,0.8,0.9,0.6,1.2c-0.1,0.2-0.3,0.2-0.6,0.1c-0.1-0.3-0.9-1-2.2-2.1c-0.2-0.2-0.6-0.5-1.1-0.8
		c-0.6-0.4-0.9-0.6-1-0.7l-0.4-0.3c-0.3-0.1-0.9-0.3-1.7-0.6c-0.8-0.3-1.5-0.5-2.1-0.7s-1-0.4-1.2-0.6l-0.1-0.1v-0.5
		c0.1-0.2,0.5-0.2,1,0c0.3,0.1,0.7,0.2,1.2,0.4c0.5,0.2,0.9,0.4,1.2,0.5c0.4,0.2,0.6,0.3,0.7,0.3c-0.1-0.1-0.4-0.5-0.9-1.1
		s-0.9-1.1-1.3-1.7c-0.3-0.5-0.4-0.9-0.3-1.1c0.1-0.1,0.2-0.1,0.3-0.2c0.1,0,0.2,0,0.3,0.1c0.5,0.4,1,1.1,1.7,2
		C51.2,124.9,51.8,125.6,52.2,125.9z"/>
	<path d="M66.4,118.1c0.1,0.1,0.2,0.3,0.3,0.4c0,0.1,0,0.3-0.1,0.4s-0.4,0.1-0.9-0.1c-0.7-0.3-2-0.9-3.7-1.9
		c-0.6-0.3-1.2-0.7-1.8-1.1l-1-0.6c0.8,0.9,1.5,1.6,1.9,2c0.4,0.5,1,1,1.6,1.6c0.7,0.6,1.3,1.2,1.9,1.7c0.1,0.1,0.2,0.2,0.2,0.3
		c0,0.1,0,0.3-0.1,0.4c-0.3,0.3-0.8,0.2-1.5-0.4c-0.3-0.2-1.2-0.8-2.8-1.9c-1.6-1-3.2-2-4.8-2.9s-2.5-1.5-2.7-1.5
		c-0.1-0.3-0.1-0.5,0.1-0.8c0.2-0.2,0.8,0,1.9,0.6c1.1,0.6,2.4,1.4,3.9,2.4l0.2,0.2c1.3,0.9,2,1.4,2,1.4l-1.1-1.1
		c-0.5-0.5-1-1-1.4-1.5c-0.4-0.4-0.8-0.9-1.3-1.3c-0.5-0.5-0.8-0.8-1.1-1l-0.3-0.2c-0.1-0.1-0.2-0.2-0.2-0.4c0-0.2,0-0.3,0.1-0.4
		c0.3-0.3,0.5-0.4,0.8-0.2l0.2,0.2c0.5,0.4,1.1,0.8,1.8,1.2c0.7,0.4,1.6,0.8,2.6,1.3c0.8,0.4,1.5,0.8,2.1,1.1c-0.4-0.4-1-1.1-2-2.1
		c-0.9-1-1.8-1.9-2.5-2.6s-1.4-1.3-2-1.9c-0.2-0.2-0.3-0.3-0.4-0.5c0-0.1,0-0.3,0.2-0.5c0.1-0.1,0.2-0.2,0.4-0.2
		c0.1,0,0.3,0,0.4,0.1c0.1,0.1,0.2,0.2,0.2,0.4c0.7,0.6,1.4,1.3,2.2,2.1c0.8,0.8,1.6,1.7,2.2,2.5c0.7,0.8,1.4,1.6,2.2,2.5
		C65,116.9,65.7,117.6,66.4,118.1z"/>
	<path d="M66.7,107.4L66.7,107.4l0.9,0.7l0.8,0.6c2.7,2.2,3.5,3.9,2.5,5.1c-0.2,0.2-0.5,0.4-0.8,0.5s-0.7,0.1-1,0
		c-0.8-0.2-1.5-0.5-2.3-1c-0.7-0.4-1.3-0.9-1.9-1.4c-0.1-0.1-0.2-0.2-0.3-0.2s-0.2-0.1-0.2-0.2h-0.1l-0.3-0.2
		c-0.1-0.1-0.3-0.2-0.6-0.5c-0.1-0.1-0.3-0.2-0.4-0.3c-0.2-0.2-0.5-0.4-0.6-0.6s-0.4-0.4-0.7-0.7c-0.2-0.2-0.4-0.5-0.6-0.7
		c-0.2-0.2-0.3-0.4-0.5-0.7c-0.1-0.2-0.2-0.4-0.2-0.6s0-0.3,0.1-0.5c0.3-0.4,0.7-0.6,1-0.8c0.4-0.2,0.8-0.3,1.2-0.3s0.8,0.1,1.2,0.2
		c0.4,0.1,0.9,0.4,1.3,0.6C65.8,106.7,66.2,107,66.7,107.4z M61.8,106.8c-0.3,0.3-0.3,0.7,0,1.1c0.1,0.2,0.3,0.4,0.4,0.5
		c0.2,0.2,0.3,0.3,0.6,0.5c0.2,0.1,0.3,0.3,0.5,0.4c0.1,0.1,0.3,0.2,0.4,0.3c0.1,0.1,0.3,0.3,0.6,0.6c0.3,0.3,0.5,0.5,0.6,0.6
		c0.3,0.3,0.8,0.7,1.5,1.2s1.5,1,2.3,1.4c0.4,0.2,0.7,0.3,1,0.3s0.5,0,0.6-0.2s0.2-0.4,0.2-0.6s-0.1-0.5-0.3-0.8
		c-0.3-0.5-0.8-1.1-1.3-1.6c-0.5-0.4-0.8-0.8-1.2-1.1c-0.4-0.3-1-0.7-1.7-1.3c-0.8-0.6-1.4-1-1.7-1.2l-0.2-0.2
		c-0.2-0.2-0.5-0.3-0.8-0.4s-0.6-0.1-0.8,0C62.2,106.4,62,106.6,61.8,106.8z"/>
	<path d="M76.3,107.2c-0.2,0.2-0.5,0.2-1.1,0s-1.2-0.4-1.8-0.8l-0.5-0.3c-1.5-0.8-2.4-1.3-2.7-1.4l-0.1,0.2c0.3,0.2,0.5,0.4,0.7,0.6
		s0.5,0.4,0.8,0.6c1.2,1,2.3,1.7,3.1,2.1l0.2,0.5l-0.3,0.4h-0.4l-0.9-0.8c-0.8-0.6-2.1-1.6-3.9-3c-1.8-1.3-3.1-2.3-3.9-3
		c-0.4-0.4-0.5-0.7-0.3-1c0.3-0.3,0.6-0.6,0.9-0.7c0.3-0.2,0.7-0.2,1-0.2s0.7,0.2,1,0.4l1,0.8c0.1,0.1,0.3,0.3,0.4,0.5
		s0.2,0.4,0.3,0.5l0.3,0.7l0.2,0.6l1.5,0.8c0.8,0.4,1.5,0.8,2,1c0.6,0.2,1.1,0.4,1.6,0.6l0.3,0.1c0.1,0,0.2,0.1,0.3,0.1
		c0.1,0,0.2,0.1,0.2,0.1c0.1,0.1,0.2,0.2,0.2,0.3C76.4,107,76.4,107.1,76.3,107.2z M67.9,101.8c-0.2-0.1-0.3-0.3-0.5-0.3
		c-0.1-0.1-0.3-0.2-0.5-0.2c-0.2-0.1-0.4-0.1-0.5,0c-0.2,0-0.3,0.1-0.5,0.3l0.1,0.1c0,0.1,0.1,0.1,0.1,0.1c0.5,0.4,1,0.8,1.7,1.3
		s1.2,0.9,1.6,1.3c0-0.2,0-0.4-0.2-0.8c-0.2-0.3-0.4-0.6-0.6-0.9C68.3,102.3,68.1,102,67.9,101.8z"/>
	<path d="M72.1,94.1c0,0,0.1,0.3,0.3,0.8c0.6,1.7,0.9,2.6,1,2.8l0.4,0.4l0.4,0.4c0.3,0.2,0.8,0.5,1.5,0.9s1.5,0.7,2.3,1
		s1.3,0.5,1.7,0.5h0.4c0.2,0,0.4,0,0.5,0.1c0.1,0,0.2,0.1,0.3,0.2c0.1,0.1,0.2,0.2,0.2,0.3c0,0.1,0,0.3-0.1,0.4
		c-0.2,0.2-0.6,0.2-1.3,0.1c-0.6-0.1-1.3-0.4-2-0.7c-0.8-0.3-1.5-0.7-2.3-1.1c-0.5-0.3-1-0.5-1.4-0.8c0.4,0.9,1.1,1.7,2,2.5l2.6,2.1
		c0.2,0.2,0.2,0.4,0.1,0.6c-0.1,0.1-0.2,0.2-0.4,0.2c-0.1,0-0.3,0-0.4-0.1l-4.2-3.5c-0.5-0.4-1.2-1.1-2.1-2s-1.6-1.5-2.1-2
		c-0.1-0.2-0.1-0.4,0.1-0.6c0.1-0.1,0.2-0.2,0.4-0.2c0.2,0,0.3,0,0.4,0.1l0,0c0.1,0.3,0.9,1.1,2.4,2.3l0.5,0.4l-0.6-1.3
		c-0.4-0.9-0.7-1.6-0.9-2.3c-0.2-0.7-0.3-1-0.2-1.1c0.1-0.1,0.3-0.2,0.4-0.3C71.8,93.9,72,94,72.1,94.1z"/>
</g>
<g>
	<g>
		<path class="st2" d="M55.9,150.3c6.9-9.4,15-17.3,23.5-25.3c7.3-6.8,14.2-14.2,16.6-24.2c0.7-3.1-1.8-6.9-1-9.9
			c-2.4,10-9.3,17.3-16.6,24.2c-8.5,7.9-16.6,15.9-23.5,25.3c-0.5,0.7,0.4,4.1,0.5,5C55.5,146.2,56.4,149.6,55.9,150.3L55.9,150.3z"
			/>
	</g>
</g>
</svg>
