<svg id="Layer_1" data-name="Layer 1" xmlns="http://www.w3.org/2000/svg" viewBox="0 0 819.04 442.71"><defs><style>.cls-1{fill:#fff;}</style></defs><title>ziv body</title><path class="cls-1" d="M8.7,334.7c7.7,0,7.7-12,0-12s-7.7,12,0,12Z" transform="translate(-2.92 -60.99)"/><path d="M169.21,270.1a3.7,3.7,0,0,1,3-1,.71.71,0,1,0,.19-1.41,4,4,0,0,0-3.74,2,.35.35,0,0,0,.54.42Z" transform="translate(-2.92 -60.99)"/><path d="M669.73,158.31c-.4.35.21.91.61.56" transform="translate(-2.92 -60.99)"/><path d="M639.93,124a129,129,0,0,0-.34,19.16c.15,2.62-.51,7.78,1.46,9.93,2.34,2.55,9.29,2.88,12.5,3.47A112.8,112.8,0,0,0,670,158.37c.76,0,.76-1.14,0-1.18a133.77,133.77,0,0,1-14.35-1.48c-3.07-.51-9.93-.9-12.45-2.8-3.38-2.54-2.63-11.83-2.72-15.5-.11-4.47-.11-8.95,0-13.41,0-.38-.56-.37-.59,0Z" transform="translate(-2.92 -60.99)"/><path d="M670.75,157.37c-1.73,5.2-9.79,9.17-14.47,11.54a105.42,105.42,0,0,1-16.71,6.43,33.28,33.28,0,0,1-3.31,1c-2.6.51-1.61.7-1.71-1-.13-2.23,2-5.68,2.79-7.84,1.72-4.86,4.68-10.26,4-15.51-.09-.75-1.29-.76-1.19,0,.56,4.5-1.88,9.24-3.36,13.46s-2.84,8.15-4.26,12.22a.55.55,0,0,0,.67.67c8-2.35,16.11-4.71,23.56-8.54,5-2.56,12.76-6.51,14.58-12.27.13-.4-.5-.57-.63-.17Z" transform="translate(-2.92 -60.99)"/><path d="M640.66,151.1c-3.75.07-6.91-1.56-10.67-.91-4.77.83-9.53,2.54-14.19,3.81l.69.9c5.8-11.92,10.6-26.42,24.27-31.12.9-.31.51-1.75-.4-1.44-14.3,5-18.87,19.42-24.93,31.94a.62.62,0,0,0,.69.9c4.24-1.16,8.47-2.48,12.74-3.51s7.67.3,11.8.15a.37.37,0,0,0,0-.73Z" transform="translate(-2.92 -60.99)"/><path d="M635.82,123.27c-3.86-.37-7.72-.66-11.6-.71-3.55,0-8.18-.66-11.61.32s-1.78,3.08-.81,6l.82-.82c-2.58-.62-6.67-2.66-9.34-1.68s-4.92,5.27-6.68,7.58c-6.72,8.84-12.73,18.17-20.28,26.36-7.18,7.78-14.94,15.07-22.6,22.37-8.11,7.73-16.14,15.76-25.14,22.47-.75.56,0,1.84.74,1.27,15.36-11.47,29-25.88,42.53-39.46A170.67,170.67,0,0,0,589,146.83c3.09-4.26,6.09-8.58,9.29-12.76,1.59-2.08,3.22-5.07,5.75-5.9s5.7.59,8.24,1.21a.67.67,0,0,0,.82-.82c-2-6.11,6.59-4.89,10.17-4.91q6.29,0,12.57.39c.5,0,.49-.73,0-.78Z" transform="translate(-2.92 -60.99)"/><path d="M625.18,134.89c-7.35,1.92-12.19,9.83-17.48,14.79-7.86,7.37-16,14.51-23.92,21.76a125.63,125.63,0,0,1-25.16,18.27c-9.79,5.28-19.65,10.42-29.48,15.62-.78.41-.09,1.6.69,1.18,17.38-9.25,36.05-17.33,50.86-30.54,7.59-6.77,15-13.68,22.55-20.54,3.54-3.23,7.11-6.45,10.4-9.94,3.54-3.74,6.56-8.31,11.78-9.73a.46.46,0,0,0-.24-.89Z" transform="translate(-2.92 -60.99)"/><path d="M669.51,159.7c-8.37,11.55-19.5,20.59-30.81,29.12q-8.34,6.29-17,12.09c-6.31,4.23-15.07,12-23.14,10.78-.93-.14-1.33,1.28-.39,1.42,6.83,1,12.43-3.28,17.9-6.8q11.18-7.19,21.83-15.16c12-9,23.82-18.53,32.41-31,.33-.48-.44-.92-.78-.45Z" transform="translate(-2.92 -60.99)"/><path d="M670.49,160.83c-1.07,5.73-2.19,11.44-3.26,17.17a62.9,62.9,0,0,1-1.41,7.64c-.59,1.84,0,2.2-2,2-.93-.08-3.1-1.55-3.91-1.9a.69.69,0,0,0-.93.24c-1.21,2.22-1.7,4.6-2.6,6.94-1.54,4-5.11,5.63-8.63,7.56q-9.45,5.16-18.89,10.34c-12.07,6.58-24.33,12.83-37.87,15.73l.91,1.18a56.32,56.32,0,0,0,6.92-15.26.81.81,0,0,0-1.55-.43A55.53,55.53,0,0,1,590.55,227a.81.81,0,0,0,.91,1.18c14.84-3.22,28.15-10.45,41.35-17.7,6.88-3.78,14.47-7.12,20.92-11.6a9.94,9.94,0,0,0,3.54-4.17c.6-1.26.66-2.94,1.36-4.12q.25-2.88,3.82-2.16a28.51,28.51,0,0,1,3,1.81.65.65,0,0,0,.95-.39c1.68-9.58,3.31-19.16,5-28.74.09-.55-.74-.79-.84-.23Z" transform="translate(-2.92 -60.99)"/><path d="M637.77,164.88a12.1,12.1,0,0,1-6.65.5.61.61,0,0,0-.74.74l0,.18a.63.63,0,0,0,.6.46c2.29-.09,2-4,1.4-5.41a5.6,5.6,0,0,0-2.3-2.62c-1.67-1-3.68-.53-5.38-1.41l.15,1.13a13,13,0,0,0,4.84-6.58.64.64,0,0,0-1.17-.49,20.46,20.46,0,0,1-4.69,6.05.72.72,0,0,0,.15,1.13,7.51,7.51,0,0,0,2.69.73,6.94,6.94,0,0,1,2.71.63,2.9,2.9,0,0,1,1.51,1.74,4.56,4.56,0,0,1,.54,4l-.52.91a13.76,13.76,0,0,0,7-.86c.51-.2.3-1-.23-.83Z" transform="translate(-2.92 -60.99)"/><path d="M623.55,157c-1.2,3-6.66,6.16-9,8.57-2.89,3-5.69,6.16-8.47,9.29-5.36,6-10.53,12.23-15.34,18.71-9.69,13.06-18.29,27.59-22.51,43.42-3.82,14.33-2.05,30.65,7.07,42.76a44.71,44.71,0,0,0,17.41,13.42c6.63,2.94,15.08.58,22.05-.06a.77.77,0,0,0,.73-1,56.48,56.48,0,0,1-.55-16.73c.11-1-1.46-1-1.57,0a56.29,56.29,0,0,0,0,13.2c.38,3,.34,2.56-2.22,3.3a30.93,30.93,0,0,1-5.39.5c-5.08.49-8.92,1.09-13.77-1.17a45.62,45.62,0,0,1-10.39-6.78C567.25,272,565,251.2,570.46,233.92c5.05-16,14.18-30.56,24.44-43.76,5.13-6.6,10.58-12.94,16.18-19.14a99,99,0,0,1,7.9-8.33c2.07-1.82,4.32-2.83,5.3-5.47.17-.46-.55-.65-.73-.2Z" transform="translate(-2.92 -60.99)"/><path d="M614.61,274.24c-9.82-3.42-18.66-10.09-23.71-19.31-6-10.88-.75-25.48,4.29-35.81A230.37,230.37,0,0,1,631.33,166c.69-.76-.44-1.89-1.13-1.13a216.05,216.05,0,0,0-22.72,29.8c-6.42,10.19-13.2,20.84-17.13,32.28-3.51,10.2-5.51,21.1.63,30.61A42,42,0,0,0,614.4,275c.48.15.68-.59.21-.75Z" transform="translate(-2.92 -60.99)"/><path d="M621.45,164.43a44.05,44.05,0,0,1,.17,7.91c0,.44.69.55.77.1a25.7,25.7,0,0,0-.08-8.26c-.08-.56-.94-.33-.86.24Z" transform="translate(-2.92 -60.99)"/><path d="M615.14,170c.26,2.69.12,5.34.23,8,0,.52.88.7,1,.13a34.57,34.57,0,0,0-.13-8.15c-.07-.67-1.12-.68-1.06,0Z" transform="translate(-2.92 -60.99)"/><path d="M607.36,177.77c-.08,3.81.09,8.28,1.58,11.84a.45.45,0,0,0,.86-.24c-.6-3.92-1.52-7.58-1.49-11.6a.48.48,0,0,0-1,0Z" transform="translate(-2.92 -60.99)"/><path d="M599.71,187.79c.09,3.49.79,8.27,3.25,10.94a.4.4,0,0,0,.67-.39c-.45-1.69-1.43-3.21-2-4.89a21.73,21.73,0,0,1-.94-5.66.51.51,0,0,0-1,0Z" transform="translate(-2.92 -60.99)"/><path d="M590,199.7c1,3.77,2.17,7.89,4.25,11.23.32.51,1.24.18,1-.43-1.39-3.74-3.11-7.24-4.21-11.1a.54.54,0,0,0-1,.29Z" transform="translate(-2.92 -60.99)"/><path d="M579.06,217.72q1.83,3.31,3.64,6.62l1.69,3.1,1,1.77q.22,1.43,1.05.54a.5.5,0,0,0-.75.43v.18a.6.6,0,0,0,.59.59h.25a.67.67,0,0,0,.66-.66c.17-1.57-1.91-4-2.65-5.26q-2.24-3.95-4.45-7.9c-.37-.65-1.37-.07-1,.59Z" transform="translate(-2.92 -60.99)"/><path d="M574.36,232.46a46.19,46.19,0,0,0,4.07,3c.86.56,5,2.25,5,3.33a.45.45,0,0,0,.67.38c1.27-1-.06-2.09-1.05-2.6a46.48,46.48,0,0,1-7.85-4.93c-.6-.48-1.45.36-.85.85Z" transform="translate(-2.92 -60.99)"/><path d="M570.37,243.22c3.91,2.69,9.3,5,14.15,4.22a.56.56,0,0,0,0-1.08c-5-.79-9.17-1.21-13.6-4.09-.59-.38-1.12.55-.55.94Z" transform="translate(-2.92 -60.99)"/><path d="M569.88,256c4.57,1.28,13.55,6.65,16.69-.08a.65.65,0,0,0-1.13-.66c-3.84,5.3-10.51.74-15.25-.42a.6.6,0,0,0-.32,1.16Z" transform="translate(-2.92 -60.99)"/><path d="M572.51,268.17a24.24,24.24,0,0,0,19-5.1c.48-.39-.17-1.24-.66-.86a24.29,24.29,0,0,1-18.18,5.08c-.5-.06-.62.81-.12.88Z" transform="translate(-2.92 -60.99)"/><path d="M582.5,279.57a21.37,21.37,0,0,0,15.14-10.65.57.57,0,0,0-1-.57,21.24,21.24,0,0,1-14.44,10.23c-.65.12-.37,1.1.27,1Z" transform="translate(-2.92 -60.99)"/><path d="M591,283.76c2.94.37,6.18.73,9-.51s4.37-4.16,5.71-6.74a.53.53,0,0,0-.91-.53c-1.85,2.57-2.94,5.59-6.26,6.6-2.41.74-5.06.44-7.52.15-.66-.08-.64.94,0,1Z" transform="translate(-2.92 -60.99)"/><path d="M363.46,64.4c35.81,7.22,72.41,7.05,108.6,11,19.25,2.13,38.29,5.66,57.25,9.58,17.44,3.6,35.09,6.89,52.17,12a154.93,154.93,0,0,1,53.24,27.79c.86.69,2.08-.52,1.22-1.22a153.9,153.9,0,0,0-41-23.83c-17-6.58-35-10-52.8-13.77-19-4-38.09-7.89-57.35-10.56-18.28-2.53-36.69-3.71-55.09-4.92-22.07-1.45-44.2-3-66-7.1-.65-.12-.94.87-.28,1Z" transform="translate(-2.92 -60.99)"/><path d="M366.61,93.24c25.9,3.71,51.81,7.41,77.66,11.49q19.39,3.06,38.75,6.36c11.58,2,23.36,3.62,34.63,7a75.11,75.11,0,0,1,15.16,6.24c3.88,2.17,8.89,5.2,7.24,10.48-1,3.2-3.22,6.26-4.9,9.11-6.28,10.65-13.38,20.15-23.45,27.49-20.23,14.75-44.06,24.47-66.64,35a173,173,0,0,1-19.4,8.11c-5.8,1.88-11.6,3.54-16.81,6.82-11.32,7.12-20.2,19.94-34.87,19.54a.83.83,0,0,0,0,1.67c11.49.32,20-7.34,28.32-14.22a55.56,55.56,0,0,1,18.59-10.53,177.45,177.45,0,0,0,17.54-6.47c25-11.32,51.79-22.13,74.12-38.4,9.58-7,16.64-15.79,22.75-25.87,2.41-4,6-8.5,6.8-13.17s-2-7-5.56-9.3c-9.95-6.4-21.69-9.39-33.18-11.61-13.67-2.65-27.46-4.81-41.2-7-31.72-5.13-63.51-9.87-95.42-13.67-.57-.07-.71.92-.14,1Z" transform="translate(-2.92 -60.99)"/><path d="M528.17,204.79c-25.13,11.75-49.79,24.71-75.24,35.73-12.83,5.55-26.26,10.13-40.27,11.34-12.34,1.06-31.84.51-40.16-10.3-.51-.66-1.63-.08-1.16.68,6,9.62,22.3,11.19,32.51,11.38,14.15.27,28-3.29,41.16-8.35,13.67-5.28,26.76-12,39.94-18.39,14.58-7.06,29.17-14.1,43.67-21.32.52-.26.06-1-.45-.78Z" transform="translate(-2.92 -60.99)"/><path d="M472.72,231.73c5.19,17.9,17.89,34.13,29.45,48.43.64.79,1.76-.33,1.12-1.12-11.52-14.23-23.59-30.1-29.69-47.55-.19-.55-1-.33-.88.24Z" transform="translate(-2.92 -60.99)"/><path d="M487.64,296.12c-13.25-16.64-22.61-35.66-26.71-56.59-.2-1-1.79-.6-1.58.44,4.2,20.92,13.49,40.74,27.73,56.72.35.39.88-.17.56-.56Z" transform="translate(-2.92 -60.99)"/><path d="M481.94,253.11c-3.72-2.12-8.6-3.13-12.44-.71a8.24,8.24,0,0,0-3.68,9.39.71.71,0,0,0,1.37-.38,7,7,0,0,1,4.06-8.34c3.36-1.51,7-.65,10.16.94.6.3,1.12-.57.53-.91Z" transform="translate(-2.92 -60.99)"/><path d="M492,269.8c.6,4.26-5.23,8.22-8.53,9.71a7.19,7.19,0,0,1-6.48,0c-.82-.39-.91-.72-1.83-.71a.77.77,0,0,0-.74.56l0,.27a.79.79,0,0,0,.53.94l.27.1a.67.67,0,0,0,.75-.3l.09-.16c.3-.52-.32-1.19-.85-.85-.85.55,2.22,2.05,2.53,2.16a7.7,7.7,0,0,0,3.1.28A12.87,12.87,0,0,0,487,279c3-2.21,7-5.28,5.92-9.47-.16-.63-1-.34-.94.26Z" transform="translate(-2.92 -60.99)"/><path d="M475.81,276.44c4.18,1.43,10.7,1.5,11.66-4.14.45-2.61-1.14-5.43-2.28-7.66-1.34-2.63-3.07-5.17-5.78-6.52-4-2-7.8-.58-7.8,4,0,5.3.89,12.46,6.79,14.36a.67.67,0,0,0,.51-1.22c-3.71-2.28-5.17-5.4-5.58-9.65a17,17,0,0,1-.16-4.19c.91-4,4.41-2.91,6.74-1.25s3.89,4.68,5.07,7.4c3.09,7.15-2.88,9.78-8.93,8-.59-.18-.83.72-.25.92Z" transform="translate(-2.92 -60.99)"/><path d="M493,272c1.48-2.38,1.21-6.35-1.28-8-.51-.34-.91.37-.6.77,1.63,2.1,2.38,4.22,1.08,6.75a.46.46,0,0,0,.8.47Z" transform="translate(-2.92 -60.99)"/><path d="M570.38,229.83A138.72,138.72,0,0,0,556.92,238c-2.35,1.61-5.92,3.27-5.3,6.57a.75.75,0,0,0,.9.51c4.64-.74,9.89-1.72,14-4.1a.6.6,0,0,0-.46-1.1c-4.7,1.08-9.14,2.88-13.91,3.79l.9.51c-.7-2.85,6.85-6.68,8.88-8,2.92-1.93,5.9-3.78,8.9-5.58a.44.44,0,0,0-.44-.75Z" transform="translate(-2.92 -60.99)"/><path d="M552.12,240.59c-15.25,9-28.67,20.48-42.29,31.67-11.58,9.51-22.69,18.88-27.51,33.58A54.24,54.24,0,0,0,484,344.32c2.55,5.73,6,10.9,11.84,13.66,6,2.87,13,3,19.58,3.13a.88.88,0,0,0,.44-1.63c-7.49-5.67.28-20.41,3.79-26.24a101,101,0,0,1,14.89-18.36c12.7-12.91,26.17-25.12,39.28-37.61.91-.87-.47-2.25-1.38-1.38-15.67,15-32.87,29.32-46.79,46-5.3,6.34-9.92,13.36-12.58,21.23-2,5.8-3.74,13.61,1.9,17.86l.44-1.63c-6.69-.09-14-.16-20-3.53-6.43-3.61-9.86-11-11.93-17.75a53.21,53.21,0,0,1,3.13-38.49c6.22-12.71,18.19-21.13,28.84-29.89,12-9.88,24-19.89,37.22-28.1a.59.59,0,0,0-.59-1Z" transform="translate(-2.92 -60.99)"/><path d="M363,64.09c2.77,4.32,5,8.35,5.5,13.59a36.36,36.36,0,0,1,.12,5.4,18.45,18.45,0,0,1-.64,4.23q-.81,4.79-2.25.4c.09-1-1.53-1-1.6,0a8.72,8.72,0,0,0,1,5.06.73.73,0,0,0,1.14.15c7.2-8.38,3.46-21.45-2.5-29.29-.35-.46-1.12,0-.79.46Z" transform="translate(-2.92 -60.99)"/><path d="M355.38,65.62c-6.07-5.43-12.83-4.77-20.5-4.39-5.35.27-12,1.22-12.13,7.86a.69.69,0,0,0,1.39,0c.16-7.6,10.62-6.53,15.32-6.77,5.76-.3,10.62.05,15.25,4,.46.39,1.13-.26.67-.67Z" transform="translate(-2.92 -60.99)"/><path d="M330.32,67.77c-2.14-.34-5.75-.79-7,1.56-.24.45.29,1.13.77.77A5.66,5.66,0,0,1,327,68.7a14.21,14.21,0,0,1,3.17.06c.56.06.7-.91.13-1Z" transform="translate(-2.92 -60.99)"/><path d="M323.36,68.33c-.49,2-.71,5.4,1,6.93a2.58,2.58,0,0,0,2.61.37,8.28,8.28,0,0,0,1.63-.86,14.7,14.7,0,0,1,2-.93.53.53,0,0,0-.13-1c-1.78-.3-2.74,1.61-4.39,1.77-2.68.25-2.43-4.48-2.07-6.11.11-.48-.61-.68-.73-.2Z" transform="translate(-2.92 -60.99)"/><path d="M324.21,74.31A15.68,15.68,0,0,0,322.83,80a.57.57,0,0,0,.41.54,15.4,15.4,0,0,0,5.88.29c.74-.16.5-1.17-.17-1.23-1.84-.17-3.71,0-5.57-.16L324,80a12.9,12.9,0,0,1,1-5.35c.18-.43-.56-.74-.75-.32Z" transform="translate(-2.92 -60.99)"/><path d="M323.29,79.89c-.48,2.91-.86,6.66,2.6,7.8,2.22.73,5.2.26,7.5.61s4.86,1.18,7.34,1.31c.65,0,.67-.84.14-1a32.88,32.88,0,0,0-7.3-1.62,32.12,32.12,0,0,0-3.7-.35q-1.15,0-2.29,0-4.87-2.23-3.5-6.54c.08-.52-.71-.75-.8-.22Z" transform="translate(-2.92 -60.99)"/><path d="M336.85,88.37c-3.72,1.29-7.7,2.37-11.29,4a5.06,5.06,0,0,0-3,2.58c-1.63,3.59.34,4.58,3.41,4.46a24.84,24.84,0,0,0,6.74-.8c2.73-.88,4.22-2.14,7.3-2.23a29.42,29.42,0,0,0,4-.12c5.73-.95,8.92-6.46,14.55-7.83.71-.17.5-1.16-.16-1.22-2.44-.2-4.26.9-6.19,2.35a54.65,54.65,0,0,1-5,3.94c-2.75,1.6-5.64,1.22-8.66,1.5-4.14.37-7.44,2.87-11.72,3.09-2.39.13-2.78,1-1.58-2.17,1-2.7,1.27-2.44,3.65-3.34,2.77-1.05,5.51-2.18,8.26-3.28.58-.23.35-1.17-.26-1Z" transform="translate(-2.92 -60.99)"/><path d="M327.59,98.13c1.28-.27,1.48-2,.78-2.86a3.67,3.67,0,0,0-4.35-.65.58.58,0,0,0,.29,1.07c.87,0,1.72-.43,2.59-.1s1.22,1.27.36,1.79a.42.42,0,0,0,.32.76Z" transform="translate(-2.92 -60.99)"/><path d="M357.26,80.1a9.27,9.27,0,0,1,.22,4.65,6.88,6.88,0,0,0-.51,2.36c.26,1.77,2.32.79,3.44.7s2.34.34,3.49.3a1.43,1.43,0,0,0,1.36-.83c.48-1,.25-2.45.29-3.49,0-1.42.18-2.87.09-4.29a.6.6,0,0,0-1.19,0c-.25,1.91-.18,3.89-.24,5.82,0,1-.24,1.49-1.31,1.33a9.57,9.57,0,0,0-2.76,0c-.72.1-1.56.69-2,.11s.14-1.58.26-2.3a10.14,10.14,0,0,0-.34-4.56.42.42,0,0,0-.8.22Z" transform="translate(-2.92 -60.99)"/><path d="M364.46,79.76c0-.61-.46-.95-1-1a1.66,1.66,0,0,0-.88.18c-.2.09-.43.32-.63.37-.61.14-1-.33-1.29-.77a.66.66,0,0,0-1-.13,19.74,19.74,0,0,0-1.39,1.42.65.65,0,0,0,.92.92,19.73,19.73,0,0,0,1.39-1.41l-1-.13a2.89,2.89,0,0,0,1.82,1.45,1.68,1.68,0,0,0,1-.16c.18-.09,1.26-1,1.41-.63a.4.4,0,0,0,.77-.1Z" transform="translate(-2.92 -60.99)"/><path d="M364.23,83.07c-1.72.45-3.48-.19-5.16-.58-.81-.19-1.16,1.09-.34,1.25,1.89.37,4,1.06,5.84.13.45-.23.13-.92-.34-.8Z" transform="translate(-2.92 -60.99)"/><path d="M358.32,79.08c-.44-.22-.68-1.6-1-2.09-.18-.32-.65-.29-.87-.54-1.62-1.88-2.44-5.49-.64-7.58.32-.38.78-.58,1.08-1s0-.72.1-1c1.13-2.07,4.27-1.36,6.4-1.54a.66.66,0,0,0,0-1.31c-1.77,0-6.47-.72-7.69,1.19-.49.78,0,1.3-.22,2s-1.28,1.21-1.58,2a9.43,9.43,0,0,0,.31,6.45,13.87,13.87,0,0,0,2.84,3.13c.58.54.18.56,1,.81a.36.36,0,0,0,.28-.66Z" transform="translate(-2.92 -60.99)"/><path d="M365,79.6a5.87,5.87,0,0,0,4.4-4c.13-.51-.65-.89-.89-.38A6.73,6.73,0,0,1,364.8,79a.33.33,0,0,0,.17.63Z" transform="translate(-2.92 -60.99)"/><path d="M364.17,66.83c-2.59.26-4.88-1.81-6.84,1-1.63,2.3-.62,5.1.77,7.24s2.82,3.44,5.36,2.43a6.24,6.24,0,0,0,3.86-5.92.61.61,0,0,0-1.21,0,5.64,5.64,0,0,1-2.77,4.59c-2.45,1.3-4.15-1.3-5-3.19-1.15-2.45-.64-5.83,2.77-5.6a11.4,11.4,0,0,0,3.2.21c.39-.08.31-.75-.1-.71Z" transform="translate(-2.92 -60.99)"/><path d="M363.19,67.44c.35.34.75.62,1.09,1s.66.71,1,1.08,1-.2.68-.68a7.11,7.11,0,0,0-2.3-1.95c-.37-.17-.78.28-.45.59Z" transform="translate(-2.92 -60.99)"/><path d="M362.08,72.31l.1,0q.28-.89.44-.47c.1-.17,0,.38.06,0s-.18-.86-.62-.81c-1.67.2-.54,2.8.79,1.91a1.12,1.12,0,0,0,.18-1.67,1,1,0,0,0-1.63.2c-.24.42.17,1.08.68.88Z" transform="translate(-2.92 -60.99)"/><path d="M362.48,72.56c1.25-.07,3.2-.76,3.77-2a.48.48,0,0,0-.65-.65c-.53.3-.91.79-1.44,1.11a6.2,6.2,0,0,1-1.79.65.45.45,0,0,0,.12.87Z" transform="translate(-2.92 -60.99)"/><path d="M361.81,72.39a5.77,5.77,0,0,1,.06,2.92.42.42,0,0,0,.8.22,4.9,4.9,0,0,0-.05-3.37c-.18-.51-1-.3-.81.22Z" transform="translate(-2.92 -60.99)"/><path d="M359.82,74.66a.46.46,0,0,0,0-.93.46.46,0,0,0,0,.93Z" transform="translate(-2.92 -60.99)"/><path d="M358.62,71.9a.6.6,0,0,0,0-1.19.6.6,0,0,0,0,1.19Z" transform="translate(-2.92 -60.99)"/><path d="M359.1,69a.3.3,0,0,0,0-.6.3.3,0,0,0,0,.6Z" transform="translate(-2.92 -60.99)"/><path d="M361,68.58a.64.64,0,0,0,0-1.28.64.64,0,0,0,0,1.28Z" transform="translate(-2.92 -60.99)"/><path d="M363.92,69.94a.32.32,0,0,0,0-.64.32.32,0,0,0,0,.64Z" transform="translate(-2.92 -60.99)"/><path d="M363.92,73.83a.6.6,0,0,0,0-1.19.6.6,0,0,0,0,1.19Z" transform="translate(-2.92 -60.99)"/><path d="M364.16,86.6a19.47,19.47,0,0,0,5,.34c.6-.09.51-1,0-1.13a10,10,0,0,0-2.39-.21c-.87,0-1.73-.09-2.6-.1s-.68,1,0,1.11Z" transform="translate(-2.92 -60.99)"/><path d="M374.52,245.73c-32.24,9.2-65.74,11.71-99,14.25-34.08,2.6-68.17,5-102.25,7.53-.77.06-.77,1.26,0,1.2,34.75-2.58,69.5-5,104.24-7.69,32.73-2.52,65.65-5.1,97.35-14.14a.6.6,0,0,0-.32-1.16Z" transform="translate(-2.92 -60.99)"/><path d="M176,273c-12.95,12-25.26,26.43-32.13,42.84-3.26,7.78-5.2,16.27-4.23,24.72.25,2.19.36,5.67,2,7.4,1.86,1.93,5.91,1.43,8.2,1.16,7.43-.87,14.08-5,19.35-10.12a73.13,73.13,0,0,0,7.65-9c2.1-2.84,4.9-6,6.25-9.26,1.48-3.6.22-7.81-.27-11.51l-2-15.28c-.66-5.05-1-10.28-2-15.28-.42-2.11-.73-3.48-2.62-4.56a.86.86,0,0,0-.87,1.48c3,1.73,2.61,9.48,3,12.62l1.38,10.5,1.38,10.5c.51,3.91,1.85,8.39-.19,12-6.29,11.14-18.48,26.72-32.72,26.57-6.55-.07-7.06-4.57-7.33-9.72a42.72,42.72,0,0,1,.8-10.55,67.55,67.55,0,0,1,8.1-20.42c7.14-12.41,16.72-23.42,26.94-33.38.48-.47-.24-1.18-.73-.73Z" transform="translate(-2.92 -60.99)"/><path d="M168.64,269.19C166,273.1,162,275,158.41,277.87s-6.13,6.86-8.58,10.64c-5.66,8.74-11.51,17.94-15.66,27.5-3.12,7.18-5.6,16.23-2.6,23.88,2.26,5.76,7.16,10,13.55,8.76.76-.15.44-1.3-.32-1.16-11.92,2.32-14.31-13-12.69-21.27s6.06-16,10.37-23.24,8.26-15.13,13.82-21.45c4-4.54,10-6.62,13.38-11.75.43-.64-.61-1.25-1-.61Z" transform="translate(-2.92 -60.99)"/><path d="M172.15,268.74a17.42,17.42,0,0,1,4.31,7.48.6.6,0,0,0,1.16-.32,18.73,18.73,0,0,0-4.62-8c-.54-.56-1.39.29-.85.85Z" transform="translate(-2.92 -60.99)"/><path d="M185.42,321.25c1.09-1.45,5.57-1.63,7-1.8,3.28-.41,6.59-.64,9.88-.94q10.81-1,21.63-1.82c13-1,26.11-1.85,39.17-2.61,13.78-.81,27.57-1.49,41.35-2.23,12.81-.69,25.47-2.56,38.19-4.09,11.5-1.38,23-1.49,34.52-2.61,8.59-.84,18-2,26.27,1.27,27.69,10.87,4.82,50.53-6.24,65.79-15,20.69-35.11,37.12-56.79,50.38-.66.4-.06,1.44.61,1,20.47-12.52,39.46-27.8,54.24-46.83a123.19,123.19,0,0,0,17.53-30c4.13-10.39,8-24,.75-34.07-4.84-6.66-12.66-9.09-20.57-9.5-10.32-.54-20.93,1.15-31.23,1.65-14.68.7-29.19,3.24-43.8,4.76-14.94,1.55-30,1.88-45,2.71-17,.95-34,2-50.94,3.33q-12.81,1-25.59,2.22c-3.46.33-9.63-.32-12,2.79-.46.62.58,1.22,1,.61Z" transform="translate(-2.92 -60.99)"/><path d="M182,316.89a8.86,8.86,0,0,1,1.69,3.92c.13.76,1.29.44,1.16-.32a9.61,9.61,0,0,0-1.81-4.21c-.46-.61-1.5,0-1,.61Z" transform="translate(-2.92 -60.99)"/><path d="M484.47,352c-2.27,9.91-10.34,17.26-16.87,24.59Q457.27,388.21,447,399.85c-12.55,14.16-24.69,29.06-39,41.48A107.26,107.26,0,0,1,356.23,466c-19.38,3.59-39.34,3.5-59,3.54a212.13,212.13,0,0,1-36.38-2.64c-11.21-1.92-22.28-3.3-33.68-2.62-1.09.06-1.1,1.74,0,1.71,21.92-.77,43.19,5.12,65.12,5.3,20,.16,40.33.23,60.11-2.89,18.63-2.93,36-9.49,50.93-21.11,15.71-12.19,28.45-27.81,41.55-42.63q12.23-13.84,24.45-27.69c6.48-7.36,14.26-14.67,16.26-24.66.15-.75-1-1.07-1.15-.32Z" transform="translate(-2.92 -60.99)"/><path d="M341,421.21a492.88,492.88,0,0,1-87.82,2c-7.11-.49-14.3-1.74-21.41-2-3.2-.1-4.49.61-5.18,3.75-1.46,6.66-1.68,13.87-2.51,20.64-.84,6.95-2.41,14.23-2.28,21.23,0,.74,1.2,1,1.34.18,2-11.36,2.8-23.09,4.18-34.55a25.46,25.46,0,0,1,.57-4.69,3,3,0,0,1,2-2.93q1.19-2.85,3.82-1.77c2.93-.36,6.75.7,9.73,1q9.74.86,19.5,1.32a464.55,464.55,0,0,0,78.06-3c.76-.09.78-1.3,0-1.21Z" transform="translate(-2.92 -60.99)"/><path d="M221.91,467.14a17.28,17.28,0,0,1,6.75-.67.66.66,0,0,0,.18-1.3,12.48,12.48,0,0,0-7.32,1c-.53.24-.15,1.12.4.94Z" transform="translate(-2.92 -60.99)"/><path d="M223.74,424.13c-5.71-1.66-10.12-.77-14.21,3.66a86.72,86.72,0,0,0-11.46,16.46,107.06,107.06,0,0,0-12.85,39c-.62,5-1.87,13.2,2.36,17.14,2.95,2.75,7.84,1.58,11.11.13,5.25-2.31,9.21-6.91,12.48-11.47a116.31,116.31,0,0,0,12.23-21.93c.42-1-1-1.86-1.47-.86-4.36,9.66-9.37,20.18-16.94,27.78-4.56,4.58-13.76,10.27-17.94,2.3-2.64-5-.26-14.27.74-19.5a105.59,105.59,0,0,1,10.4-29.65,103.43,103.43,0,0,1,8-12.74c4.58-6.25,8.64-11.46,17.21-9a.7.7,0,0,0,.37-1.35Z" transform="translate(-2.92 -60.99)"/><path d="M221.5,424.39a51.08,51.08,0,0,0,7.46,1.28c.82.09.83-1.22,0-1.29-2.42-.21-4.81-.54-7.22-.88-.57-.08-.84.74-.25.89Z" transform="translate(-2.92 -60.99)"/><path d="M214.4,425.44c-8.53-3.36-13.92,5.94-17.52,12.12a119.63,119.63,0,0,0-12.43,31.06c-2.18,8.68-5.75,20.48-1.08,28.91,3.11,5.61,11.39,8.91,16.08,3.16a.71.71,0,0,0-1-1c-4.43,3.79-10.27,2.52-13.28-2.36-2.33-3.78-2.48-8.31-2.07-12.61a114.19,114.19,0,0,1,4.85-22.42,117.47,117.47,0,0,1,8.61-20.86c3.48-6.5,8.63-17.43,17.71-15.51a.25.25,0,0,0,.13-.48Z" transform="translate(-2.92 -60.99)"/><path d="M669.71,162.06c36.58,51.15,56.53,112.2,95.9,161.5,12.52,15.67,25.54,31,38.34,46.4.72.87,2-.38,1.24-1.24-21.82-26.29-44.85-51.86-62.57-81.2-16.12-26.69-29-55.13-44.06-82.43-8.35-15.17-17.32-30-28-43.72-.39-.5-1.27.16-.89.69Z" transform="translate(-2.92 -60.99)"/><path d="M800.4,369.31c-4,5.23-11.18,5.92-14.82,11.79a23.77,23.77,0,0,0-2.91,16.32c.14.8,1.44.61,1.41-.19-.27-6.62.23-13.3,5.15-18.32,3.62-3.69,9.05-4.54,12.05-8.93.35-.52-.49-1.18-.88-.68Z" transform="translate(-2.92 -60.99)"/><path d="M595.15,262.38c17.13-1,34.49-2.68,51.42,1.15,17.14,3.87,31.36,13.76,43.7,26C712,311,727.94,337.39,746.93,361.2c10.37,13,21.75,25.13,35.08,35.14,1,.74,1.94-.92,1-1.65-25.82-19.39-43.54-46.7-62.56-72.29-18.08-24.32-39.34-51.65-70-59.86-18-4.81-37.19-3.65-55.41-1.07-.52.07-.4.94.12.91Z" transform="translate(-2.92 -60.99)"/><path d="M799.58,371.93a40.21,40.21,0,0,1,9,9.2,37.42,37.42,0,0,0,6.07,7.49c4,3.69,5.75,7,5.56,12.6-.16,4.7-.66,9.39-.61,14.1a.69.69,0,0,0,1.39,0,106.92,106.92,0,0,0,.88-16.6,13.17,13.17,0,0,0-3.52-8.79c-3.16-3.43-6.23-6.27-8.89-10.18-2.43-3.57-5.77-6.18-9.17-8.77-.55-.42-1.29.53-.74,1Z" transform="translate(-2.92 -60.99)"/><path d="M805.41,403.61a71.66,71.66,0,0,1-.84,17.29,20.2,20.2,0,0,1-2.79,7.4c-.82,1.22-2.62,3.16-4.32,1.89-1.19-.89-1.19-4.45-1.18-5.56,0-3.2,1.59-7.3.37-10.39-.39-1-.82-1.14-1.43-1.9-1.37-1.71-2.82-2.48-3.13-4.9a6.88,6.88,0,0,1,2-5.71c.73-.75-.43-1.91-1.15-1.15a8.51,8.51,0,0,0-1,10.8c1.8,2.51,3,1.56,3.49,6,.24,2.1-.52,4.41-.58,6.52-.07,2.53.13,5.45,1.8,7.51,2.86,3.53,6.13-1.73,7.4-4.35,3.39-7,3-16,2.56-23.49,0-.75-1.22-.76-1.18,0Z" transform="translate(-2.92 -60.99)"/><path d="M782.82,396.57c2.12,2.22,5.15,4.83,8.24,5.45a.6.6,0,0,0,.46-1.09c-1.3-.78-2.75-1.26-4.05-2.07a21.45,21.45,0,0,1-3.84-3.1c-.52-.52-1.32.28-.81.81Z" transform="translate(-2.92 -60.99)"/><path d="M803.84,424.62c-.5,0-.85-.43-1.38-.34s-.79.6-1,1.07c-.41.75-.78,1.52-1.17,2.28a4.85,4.85,0,0,0-.84,2.14c0,.36.46.7.79.45.93-.71,1.34-2.2,1.84-3.24.13-.27.51-1.54.77-1.68a10.59,10.59,0,0,0,1,.27.48.48,0,0,0,0-1Z" transform="translate(-2.92 -60.99)"/></svg>